<?xml version="1.0" encoding="utf-8"?>
<!-- Generator: Adobe Illustrator 20.1.0, SVG Export Plug-In . SVG Version: 6.00 Build 0)  -->
<!DOCTYPE svg PUBLIC "-//W3C//DTD SVG 1.1//EN" "http://www.w3.org/Graphics/SVG/1.1/DTD/svg11.dtd">
<svg version="1.1" id="圖層_1" xmlns="http://www.w3.org/2000/svg" xmlns:xlink="http://www.w3.org/1999/xlink" x="0px" y="0px"
	 viewBox="0 0 35 35" style="enable-background:new 0 0 35 35;" xml:space="preserve">
<style type="text/css">
	.st0{fill-rule:evenodd;clip-rule:evenodd;fill:#FFFFFF;}
</style>
<path id="friend_1_" class="st0" d="M0,34.4l4.4-4.1c0,0,1-1.4,4.4-1.4h17.9c3.4,0,4.5,1.4,4.5,1.4l3.7,4.1H0z M17.4,28.1
	c-7.6,0-13.8-6.2-13.8-13.8c0-7.6,6.2-13.8,13.8-13.8c7.6,0,13.8,6.2,13.8,13.8C31.2,21.9,25,28.1,17.4,28.1z M15.1,4.2
	c-4.2,1.5,1,6.9-8.3,10.1c0,5.9,4.7,10.6,10.6,10.6S28,20.1,28,14.3C22.6,9.8,13.5,11.9,15.1,4.2z"/>
</svg>
