<?xml version="1.0" encoding="utf-8"?>
<!-- Generator: Adobe Illustrator 20.1.0, SVG Export Plug-In . SVG Version: 6.00 Build 0)  -->
<svg version="1.1" id="分離模式" xmlns="http://www.w3.org/2000/svg" xmlns:xlink="http://www.w3.org/1999/xlink" x="0px"
	 y="0px" viewBox="0 0 128.9 157.3" style="enable-background:new 0 0 128.9 157.3;" xml:space="preserve">
<style type="text/css">
	.st0{fill:#FFFFFF;}
</style>
<g>
	<path class="st0" d="M76.6,79.8c-28.7-7.7-35.2-20-34-31.5c1-9.5,10.9-21,35-17.5c32.5,4.7,23.3,38.9,23.3,38.9s6.1,3.9,11.8,6
		c6.7-11.4,11.4-22.8,16.3-35.1c-3.9-8.2-10.9-19.2-21.8-26.8C94.8,5.7,80.6-0.7,58.9,0.1C46.1,0.5,25.1,6.3,12.6,23.3
		c-15.4,20.9-16.5,45-4.5,63c7.7,11.6,26,24.7,48.4,30.7c9.6,2.6,15.2,4.3,16.9,5.1c4.6,2.2,6.8,5.1,6.8,8.6c0,7.2-6,10.7-17.8,10.7
		c-14.3,0-25.6-6-33.8-18c-8.4,2.6-14.6,6.8-18.5,12.6c9.1,14.2,27.2,21.4,54.3,21.4c24.6,0,44.6-12.1,48.1-30
		C117,104.7,104.1,87.2,76.6,79.8z"/>
</g>
</svg>
