<svg id="圖層_1" data-name="圖層 1" xmlns="http://www.w3.org/2000/svg" xmlns:xlink="http://www.w3.org/1999/xlink" viewBox="0 0 150 150"><defs><style>.cls-1{opacity:0.7;fill:url(#未命名漸層_10);}.cls-2{fill:#fff;}</style><linearGradient id="未命名漸層_10" y1="662.01" x2="150" y2="662.01" gradientTransform="translate(0 -587.01)" gradientUnits="userSpaceOnUse"><stop offset="0" stop-color="#ae00ff"/><stop offset="1" stop-color="#00c3ff"/></linearGradient></defs><title>head_2</title><rect class="cls-1" width="150" height="150"/><path class="cls-2" d="M82.35,75.63c-17.35-4.63-21.29-12-20.6-19,.59-5.78,6.57-12.7,21.18-10.59C102.61,48.85,97,69.54,97,69.54a47.15,47.15,0,0,0,7.12,3.66A154.48,154.48,0,0,0,114,52c-2.37-5-6.56-11.59-13.18-16.22-7.51-4.89-16-8.78-29.19-8.35-7.74.27-20.45,3.77-28,14.06-9.29,12.65-10,27.28-2.72,38.18,4.69,7,15.73,15,29.33,18.59q8.68,2.4,10.2,3.06,4.14,2,4.14,5.19,0,6.49-10.81,6.47-13,0-20.45-10.9-7.63,2.34-11.22,7.63c5.52,8.59,16.47,12.95,32.9,12.95,14.92,0,27-7.31,29.14-18.18C106.82,90.74,99,80.17,82.35,75.63Z" transform="translate(0 0)"/></svg>