<?xml version="1.0" encoding="utf-8"?>
<!-- Generator: Adobe Illustrator 20.1.0, SVG Export Plug-In . SVG Version: 6.00 Build 0)  -->
<svg version="1.1" id="Layer_1" xmlns="http://www.w3.org/2000/svg" xmlns:xlink="http://www.w3.org/1999/xlink" x="0px" y="0px"
	 viewBox="0 0 737 207.2" style="enable-background:new 0 0 737 207.2;" xml:space="preserve">
<style type="text/css">
	.st0{fill:#FFFFFF;}
</style>
<g>
	<path class="st0" d="M734.2,107.6C724.7,69.3,707,31,694,22.5c-13-8.4-29.5-5-29.5-5S653.3,3,635.6,0.4
		c-21.8-3.2-49.5,12-69.7,28.8c-13.4,11.2-21.2,20.1-25.7,27.1l20.9,3.2l-3.3,21.7c0.7,0.2,1.3,0.6,1.9,1.5c1.1,0.3,2.7-2.6,1.5,0.6
		c1,0.2,1.2-1.1,1.7-2c1,2.1,7.3,6,6.5,3.9c1.7,0.9,6.7-3.3,9.5-4.1c0.9-0.3,0.1,3.4,0.9,3c0.1,0.1,1.7-1,2.1-1.2
		c2.7-20.1,44.6-41.8,60.4-0.8c0.7,1.9,1.8,1.2,2.3,0.9c39.1-23.1,61,33.9,37.6,46.5c-2.8,1.5,0.5,5.1,0.5,5.3
		c0.9,0.2,7,7.7,7.9,6.9c1.3,3.9,5.1,1.4,8.1,2.2c-5.2,4.7,5.5,7.2,6,11.5c-8.1-6.6-19.9-11.7-27.4-18.5
		c3.8,3.5-55.2,19.4-64.9,15.5c-4.5-1.8-9.6-10.4-12.4-14.7c-10.3-16-18.9-37.5-21.9-40.5c-0.7-0.7-1.4-1.3-2.3-1.6
		c-0.8-0.3-1.7-0.3-2.7-0.1c0.6-2.8,0.3-4.2-0.8-6.6c-0.8-0.1-1.6,1.8-1,2.3c-1.6,1.6-3.1-2-2.1-3.6c-4-0.7-9.2-4.2-10.6-2.6
		c-0.2-0.6-0.7-1-1.3-1.4L546.9,153l17.6,2.7l-2.6,27l-6.3-1c18.9,14.2,39.9,21.5,51.6,23.4c18.8,3.1,43.5,4.8,76.1-9.8
		c36.2-16.2,33-28,34.1-33.3C725.8,160.1,743.8,145.9,734.2,107.6z M652.1,183.3c-3.8,1.5-8.3,1.3-13.1-0.1
		c-1.3-5.3-1.3-9.3,0.3-13.1c1.6-3.8,9.9-0.8,6.9,6.1l-0.1,0.1C653.2,173.8,655.9,181.8,652.1,183.3z"/>
	<g>
		<g>
			<path class="st0" d="M76.6,105.2c-28.7-7.7-35.2-20-34-31.5c1-9.5,10.9-21,35-17.5c32.5,4.7,23.3,38.9,23.3,38.9s6.1,3.9,11.8,6
				c6.7-11.4,11.4-22.8,16.3-35.1c-3.9-8.2-10.9-19.2-21.8-26.8c-12.4-8.1-26.5-14.5-48.2-13.7C46.1,26,25.1,31.7,12.6,48.7
				c-15.4,20.9-16.5,45-4.5,63c7.7,11.6,26,24.7,48.4,30.7c9.6,2.6,15.2,4.3,16.9,5.1c4.6,2.2,6.8,5.1,6.8,8.6
				c0,7.2-6,10.7-17.8,10.7c-14.3,0-25.6-6-33.8-18c-8.4,2.6-14.6,6.8-18.5,12.6c9.1,14.2,27.2,21.4,54.3,21.4
				c24.6,0,44.6-12.1,48.1-30C117,130.1,104.1,112.6,76.6,105.2z"/>
		</g>
		<g>
			<path class="st0" d="M171,140.5c-0.3,5-0.8,8.9-1.8,11.7c-1.9,5.5-5.7,8.1-11.4,7.8c-3.7-0.2-5.9-2.8-6.6-7.8
				c-0.2-1.6-0.2-5.5,0.1-11.8l2.8-55.8L123.6,83l-2.8,55.3c-0.5,9.4,0.1,15.9,1.8,19.3c3.7,7.8,11.2,11.9,22.5,12.5
				c9,0.5,17.3-3,24.9-10.3l-0.5,9.7l30.5,1.5l4.2-84l-30.5-1.5L171,140.5z"/>
		</g>
		<g>
			<path class="st0" d="M278.6,87.9c-4.3-3-9.9-4.5-16.7-4.6c-9-0.1-17.2,3.6-24.5,11.2l0.1-9.7L207,84.4l-1.1,84.1l30.6,0.4l0.7-55
				c0.1-5.1,0.5-9,1.4-11.8c1.7-5.5,5.4-8.3,11.1-8.2c3.7,0,6,2.6,6.9,7.5c0.3,1.6,0.4,5.5,0.3,11.8l-0.7,55.9l30.6,0.4l0.7-55.4
				c0.1-5.7,0-9.5-0.2-11.5C286.4,96.2,283.5,91.2,278.6,87.9z"/>
		</g>
		<g>
			<path class="st0" d="M423.9,74.4c3.4,2.7,7.4,4.2,12,4.4c4.6,0.2,8.7-1,12.3-3.5c3.9-2.7,6-6.3,6.2-10.7
				c0.2-4.4-1.6-8.2-5.2-11.2c-3.4-2.7-7.3-4.2-11.9-4.4c-4.7-0.2-8.8,0.9-12.5,3.4c-4,2.7-6.1,6.3-6.3,10.8
				C418.4,67.7,420.2,71.5,423.9,74.4z"/>
		</g>
		<g>
			<path class="st0" d="M417.4,155.2l-14.7-80l-45.8,8.4l15.3,82.9c-8.3,0.6-14.5-1.2-18.7-5.5c-3.6-3.7-6.9-11.5-9.8-23.3
				c-1-3.8-2.6-12.2-5-25.3c-3.6-19.6-4.1-32.3-1.5-38.1c4.4-9.8,12.1-15.8,23.2-17.8c4.8-0.9,8.7-0.7,11.8,0.6
				c2.8,1.2,5.7,3.8,8.7,7.8c7-2.1,11.7-6,14.1-11.6c-13-8.9-29-11.6-48.2-8.1C321.3,50.1,304,62.3,295,82c-6,13-7.5,27.5-4.6,43.4
				c3.9,21.3,14.5,36.8,31.8,46.7c15.5,8.9,34,11.3,55.6,7.3c17.4-3.2,30.5-8.9,39.3-17.2l-0.2,4.9l31.1,1.2l3.2-84.1L420.2,83
				L417.4,155.2z"/>
		</g>
		<g>
			<polygon class="st0" points="540.1,158 554.3,64.6 523.5,59.9 507.1,168 556.6,175.8 558,160.8 			"/>
		</g>
		<g>
			<path class="st0" d="M515.7,83.9c-0.3-2.3-0.9-5-1.9-8.3c-2,0.1-3.7,0.2-5.1,0.4c-10.1,1.3-17.3,10-21.4,26.2l-2.5-20.1
				l-30.9,3.9l10.5,83.5l30.9-3.9l-4.9-39.3c-0.8-6.6-0.2-12.7,2-18.2c2.6-6.8,7-10.6,13.1-11.4c2.6-0.3,5.6,0.4,9,2.3
				C515.8,93.1,516.3,88.1,515.7,83.9z"/>
		</g>
	</g>
</g>
</svg>
