<svg id="圖層_1" data-name="圖層 1" xmlns="http://www.w3.org/2000/svg" xmlns:xlink="http://www.w3.org/1999/xlink" viewBox="0 0 175 70"><defs><style>.cls-1{fill:#ec4596;}.cls-2{fill:#c93539;}.cls-3{fill:#d33b54;}.cls-4{fill:url(#未命名漸層_9);}.cls-5{fill:#e9448d;}.cls-6{fill:url(#未命名漸層_13);}.cls-7{fill:#f147a2;}.cls-8{fill:#fb4abb;}</style><linearGradient id="未命名漸層_9" x1="49.88" y1="47.39" x2="71.71" y2="47.39" gradientUnits="userSpaceOnUse"><stop offset="0" stop-color="#d63c5c"/><stop offset="1" stop-color="#da3e67"/></linearGradient><linearGradient id="未命名漸層_13" x1="69.57" y1="39.24" x2="108.86" y2="39.24" gradientUnits="userSpaceOnUse"><stop offset="0" stop-color="#dd3e6d"/><stop offset="1" stop-color="#e9448d"/></linearGradient></defs><title>logo_gad</title><path class="cls-1" d="M121,26.23a12,12,0,0,0-.78-1.85q-.7.16-1.16.3-3.42,1.06-3.87,6.93l-1.4-4.55-7,2.16,5.81,18.91,7-2.16-2.73-8.9a8.72,8.72,0,0,1-.28-4.31,3.74,3.74,0,0,1,2.55-3.18,3.57,3.57,0,0,1,2.17.16A9.73,9.73,0,0,0,121,26.23Z"/><path class="cls-2" d="M20.68,49.09c-6.92-.62-8.92-3.19-9.12-5.91-.17-2.25,1.65-5.3,7.36-5.48,7.68-.24,6.94,8,6.94,8a18.17,18.17,0,0,0,3,.92,60.17,60.17,0,0,0,2.33-8.79A16.21,16.21,0,0,0,25,32.57a18,18,0,0,0-11.67-1.21c-2.93.63-7.53,2.82-9.72,7.27-2.69,5.46-2,11.09,1.52,14.77,2.25,2.37,7,4.66,12.41,5.13q3.47.32,4.1.48,1.71.49,1.92,1.71.43,2.49-3.68,3.2a9.08,9.08,0,0,1-8.52-2.79,7.77,7.77,0,0,0-3.76,3.68c2.68,2.91,7.14,3.84,13.39,2.73,5.68-1,9.8-4.62,9.87-8.92C31,53.2,27.32,49.68,20.68,49.09Z"/><path class="cls-3" d="M43.86,53.4a10.67,10.67,0,0,1,.06,2.78,2.45,2.45,0,0,1-2.31,2.26q-1.3.16-1.83-1.53a19.6,19.6,0,0,1-.45-2.73l-1.62-13-7.1.89L32.22,55a10.75,10.75,0,0,0,1.19,4.4q1.74,2.48,5.7,2a7.65,7.65,0,0,0,5.32-3.4l.28,2.26,7.1-.89L49.37,39.68l-7.1.89Z"/><path class="cls-4" d="M66.53,36.83a6.86,6.86,0,0,0-4-.39A7.65,7.65,0,0,0,57.31,40l-.36-2.25-7.07,1.16L53,58.47l7.07-1.16L58,44.55a10.54,10.54,0,0,1-.17-2.78,2.45,2.45,0,0,1,2.22-2.35q1.29-.21,1.89,1.46a19.6,19.6,0,0,1,.55,2.71l2.1,13,7.07-1.16L69.62,42.56a25.29,25.29,0,0,0-.53-2.66A4.65,4.65,0,0,0,66.53,36.83Z"/><path class="cls-5" d="M99.46,27.78A4.86,4.86,0,0,0,105.1,27a3.08,3.08,0,0,0,1-2.74,3.13,3.13,0,0,0-1.65-2.38,4.53,4.53,0,0,0-2.91-.53,4.77,4.77,0,0,0-2.74,1.29,3.16,3.16,0,0,0,.66,5.13Z"/><path class="cls-6" d="M101.26,46.75,94.61,28.84l-10.2,3.82L91.3,51.23a5.27,5.27,0,0,1-4.53-.51q-1.48-1.07-3.2-5-.57-1.26-2.19-5.64-2.44-6.59-1.9-8.75a7,7,0,0,1,4.63-5.07,4.77,4.77,0,0,1,2.75-.33,5.42,5.42,0,0,1,2.33,1.46,4.78,4.78,0,0,0,2.77-3.26q-5-2.31-11.44.09Q72,27.4,70.06,34.81a16.75,16.75,0,0,0,.72,10.25A15,15,0,0,0,80,54.56q5.9,2.13,13.12-.58,5.82-2.18,8.37-5.59l.16,1.13,7.22-1-2.68-19.6-7.22,1Z"/><polygon class="cls-7" points="133.9 42.3 129.65 42.4 129.12 20.18 121.83 20.36 122.45 46.05 134.18 45.83 133.9 42.3"/><path class="cls-8" d="M172.34,22.79C168.58,14.31,163,6.16,159.61,4.74a10.22,10.22,0,0,0-7,.05A11.58,11.58,0,0,0,145.26,2c-5.16.15-10.92,4.81-14.9,9.52a28.89,28.89,0,0,0-4.82,7.33l4.95-.12.12,5.15a.84.84,0,0,1,.51.28c.26,0,.53-.71.38.08.23,0,.24-.31.32-.53.32.45,1.93,1.08,1.65.63.43.15,1.41-1,2-1.34.2-.1.17.79.32.66a5.53,5.53,0,0,0,.43-.36c-.19-4.78,8.58-11.5,13.89-2.65.24.41.46.21.57.12,8.08-6.95,15.43,5.36,10.57,9.24-.58.46.32,1.17.33,1.2.23,0,1.93,1.5,2.11,1.27.46.86,1.23.11,2,.18-1,1.31,1.55,1.43,1.85,2.41-2.14-1.2-5.06-1.89-7.06-3.17,1,.66-11.94,6.75-14.34,6.23-1.12-.24-2.64-2-3.45-2.89-3-3.29-5.89-7.92-6.69-8.49a1.45,1.45,0,0,0-.58-.27,1,1,0,0,0-.62.09,2.16,2.16,0,0,0-.46-1.5c-.19,0-.29.48-.13.57-.3.44-.81-.34-.63-.74-1,0-2.29-.6-2.55-.17a.7.7,0,0,0-.37-.26L131,41l4.17-.09.5,6.35-1.5,0A30,30,0,0,0,147,50.56a29.07,29.07,0,0,0,17.13-5.36c7.69-5.23,6.46-7.82,6.51-9.11C172.53,35.3,176.11,31.28,172.34,22.79ZM158.84,44.61a4.73,4.73,0,0,1-3.08.48,4.75,4.75,0,0,1-.42-3.11c.24-1,2.29-.55,1.84,1.17l0,0C158.74,42.32,159.68,44.1,158.84,44.61Z"/></svg>