<svg xmlns="http://www.w3.org/2000/svg" viewBox="0 0 19.6 18.82"><title>工作區域 53</title><g id="圖層_3" data-name="圖層 3"><path d="M19.6,6.25c-.06.3-.8,4.3-.83,4.61a1,1,0,0,1-1.06.89H6c-.17,0-.23.05-.25.22s-.18,1-.19,1.13h11.3a1.07,1.07,0,0,1,.9.38A1,1,0,0,1,17.51,15a1.17,1.17,0,0,1-.64.15H4.46a1,1,0,0,1-1-.47,1,1,0,0,1-.16-.77c.17-.93.34-1.86.5-2.79,0-.14-.76-8-.78-8.25a.14.14,0,0,0-.12-.16C2.23,2.46,1.53,2.23.82,2A1.05,1.05,0,0,1,0,.83,1,1,0,0,1,1.32,0C1.64.13,3.55.75,4.18,1A1.06,1.06,0,0,1,5,2c0,.44.09.88.14,1.31,0,.07,0,.14,0,.23L18.56,5a1.09,1.09,0,0,1,1,.81l0,0Z"/><path d="M7.43,17.24a1.56,1.56,0,1,1-3.11,0,1.56,1.56,0,0,1,3.11,0Z"/><path d="M16.66,17.26a1.55,1.55,0,1,1-3.1,0,1.55,1.55,0,1,1,3.1,0Z"/></g></svg>