<svg xmlns="http://www.w3.org/2000/svg" viewBox="0 0 15.6 15.6"><title>工作區域 52</title><g id="圖層_3" data-name="圖層 3"><path d="M4.44,0h6.14c.42,0,.84,0,1.26.05a5,5,0,0,1,1.62.34,3.08,3.08,0,0,1,1.84,2,5.29,5.29,0,0,1,.2,1c.05.42.07.84.08,1.26,0,2,0,4,0,6,0,.41,0,.82,0,1.23a4.55,4.55,0,0,1-.48,1.94,3.07,3.07,0,0,1-1.84,1.53,4.69,4.69,0,0,1-1.22.23l-1.07.05-6,0c-.37,0-.74,0-1.11,0a4.76,4.76,0,0,1-1.93-.46A3.12,3.12,0,0,1,.3,13.22,4.53,4.53,0,0,1,.08,12c0-.36,0-.72,0-1.07,0-.66,0-1.31,0-2V5.19c0-.47,0-1,.05-1.42A4.78,4.78,0,0,1,.53,1.84,3.16,3.16,0,0,1,2.39.3,4.9,4.9,0,0,1,3.59.07l.84,0ZM7.68,12.68a4.9,4.9,0,0,0,3.7-1.59,4.69,4.69,0,0,0,1.27-3.68A4.66,4.66,0,0,0,11,4.16,4.69,4.69,0,0,0,7.41,3,4.66,4.66,0,0,0,4.16,4.59,4.69,4.69,0,0,0,3,8.19,4.85,4.85,0,0,0,7.68,12.68ZM12.87,1.6a1.12,1.12,0,0,0-1.13,1.14,1.1,1.1,0,0,0,1.13,1.13A1.08,1.08,0,0,0,14,2.74,1.12,1.12,0,0,0,12.87,1.6Z"/><path d="M7.8,11A3.18,3.18,0,1,1,11,8,3.18,3.18,0,0,1,7.8,11Z"/></g></svg>