<svg xmlns="http://www.w3.org/2000/svg" viewBox="0 0 7.75 14.54"><title>工作區域 50</title><g id="圖層_3" data-name="圖層 3"><path d="M3.67,3.65H6a1.51,1.51,0,0,1,.89.27,2.19,2.19,0,0,1,.33.25,1.76,1.76,0,0,1,.43.65,1.66,1.66,0,0,1,.11.58,1.65,1.65,0,0,1-.19.9,1.75,1.75,0,0,1-.28.39,1.76,1.76,0,0,1-.62.46,1.37,1.37,0,0,1-.52.13H3.65v.08c0,.58,0,1.15,0,1.73A1.68,1.68,0,0,0,4,10.19a1.76,1.76,0,0,0,.69.55,1.34,1.34,0,0,0,.47.14l.8,0a1.68,1.68,0,0,1,1,.36,1.79,1.79,0,0,1,.6.76,3.17,3.17,0,0,1,.12.44.74.74,0,0,1,0,.26,2.63,2.63,0,0,1-.07.49,1.66,1.66,0,0,1-.34.66,1.74,1.74,0,0,1-.72.54,1.36,1.36,0,0,1-.44.11c-.32,0-.64,0-.95,0s-.47,0-.7-.08a4.79,4.79,0,0,1-.75-.17A6.22,6.22,0,0,1,3.07,14a5,5,0,0,1-.93-.59l-.37-.32c-.14-.14-.29-.28-.42-.43a5.19,5.19,0,0,1-.63-.85,5.37,5.37,0,0,1-.45-1,4.09,4.09,0,0,1-.18-.75A3.7,3.7,0,0,1,0,9.48C0,9.24,0,9,0,8.77V1.83A1.82,1.82,0,0,1,.18,1,1.91,1.91,0,0,1,.47.63,1.92,1.92,0,0,1,1.06.17,1.93,1.93,0,0,1,1.58,0l.31,0A1.77,1.77,0,0,1,3,.37a2,2,0,0,1,.58.74,2,2,0,0,1,.12.42,6.39,6.39,0,0,1,0,1c0,.35,0,.71,0,1.06Z"/></g></svg>