<svg xmlns="http://www.w3.org/2000/svg" xmlns:xlink="http://www.w3.org/1999/xlink" viewBox="0 0 25 25"><defs><style>.cls-1{isolation:isolate;fill:url(#未命名漸層_13);}.cls-2{fill:#fff;}</style><linearGradient id="未命名漸層_13" x1="3.47" y1="21.53" x2="21.53" y2="3.47" gradientUnits="userSpaceOnUse"><stop offset="0" stop-color="#f99a30"/><stop offset="0.48" stop-color="#e03951"/><stop offset="1" stop-color="#773fbc"/></linearGradient></defs><title>icon_ig</title><g id="meipai_拷貝" data-name="meipai 拷貝"><rect class="cls-1" x="2" y="2" width="21" height="21" rx="5" ry="5"/><path class="cls-2" d="M9.9,12.5a2.6,2.6,0,1,1,2.6,2.6,2.6,2.6,0,0,1-2.6-2.6m-1.4,0a4,4,0,1,0,4-4,4,4,0,0,0-4,4m7.22-4.16a.93.93,0,1,0,.93-.93.94.94,0,0,0-.93.93M9.35,18.84a4.3,4.3,0,0,1-1.45-.27,2.58,2.58,0,0,1-1.48-1.48,4.3,4.3,0,0,1-.27-1.45c0-.82,0-1.07,0-3.15s0-2.33,0-3.15a4.32,4.32,0,0,1,.27-1.45A2.58,2.58,0,0,1,7.91,6.43a4.3,4.3,0,0,1,1.45-.27c.82,0,1.07,0,3.15,0s2.33,0,3.15,0a4.32,4.32,0,0,1,1.45.27,2.58,2.58,0,0,1,1.48,1.48,4.3,4.3,0,0,1,.27,1.45c0,.82,0,1.07,0,3.15s0,2.33,0,3.15a4.32,4.32,0,0,1-.27,1.45,2.58,2.58,0,0,1-1.48,1.48,4.3,4.3,0,0,1-1.45.27c-.82,0-1.07,0-3.15,0s-2.33,0-3.15,0M9.29,4.76a5.71,5.71,0,0,0-1.89.36A4,4,0,0,0,5.12,7.4a5.71,5.71,0,0,0-.36,1.89c0,.83,0,1.1,0,3.21s0,2.38,0,3.21a5.71,5.71,0,0,0,.36,1.89A4,4,0,0,0,7.4,19.88a5.72,5.72,0,0,0,1.89.36c.83,0,1.1,0,3.21,0s2.38,0,3.21,0a5.71,5.71,0,0,0,1.89-.36,4,4,0,0,0,2.28-2.28,5.7,5.7,0,0,0,.36-1.89c0-.83,0-1.1,0-3.21s0-2.38,0-3.21a5.71,5.71,0,0,0-.36-1.89A4,4,0,0,0,17.6,5.12a5.7,5.7,0,0,0-1.89-.36c-.83,0-1.1,0-3.21,0s-2.38,0-3.21,0"/></g></svg>