<svg xmlns="http://www.w3.org/2000/svg" viewBox="0 0 25 25"><defs><style>.cls-1{fill:#fff;}.cls-2{fill:#e8e0e0;}.cls-3{fill:#cd201f;}</style></defs><title>icon_youtu</title><g id="youtube"><path class="cls-1" d="M16,12.29c-1.93-1-3.77-2-5.65-3v5.91c2-1.08,4.07-2.07,5.66-2.95h0Z"/><path class="cls-2" d="M16,12.29c-1.93-1-5.65-3-5.65-3l5,3.34.68-.38Z"/><path class="cls-3" d="M10.7,19.86a42.66,42.66,0,0,1-6.2-.31,2.73,2.73,0,0,1-1.42-.74,3,3,0,0,1-.67-1.3,8.51,8.51,0,0,1-.29-1.91,45.35,45.35,0,0,1,0-6.19c.13-1.14.19-2.5,1-3.29a2.8,2.8,0,0,1,1.4-.71,77.26,77.26,0,0,1,8-.28,77.4,77.4,0,0,1,8,.28,2.74,2.74,0,0,1,1.64,1A8.15,8.15,0,0,1,23,10.32c0,.57,0,3.79,0,4.36a10,10,0,0,1-.5,3.24,2.39,2.39,0,0,1-.58.92,2.76,2.76,0,0,1-1.46.75c-3.46.26-6.4.32-9.74.26ZM16,12.29c-1.93-1-3.77-2-5.65-3v5.91c2-1.08,4.07-2.07,5.66-2.95h0Z"/></g></svg>