<svg xmlns="http://www.w3.org/2000/svg" viewBox="0 0 25 25"><defs><style>.cls-1{fill:#fff;}.cls-2{fill:#e99315;}.cls-3{fill:#d52a2c;}</style></defs><title>icon_weibo</title><g id="weibo"><circle class="cls-1" cx="12.5" cy="12.5" r="10.5"/><path class="cls-2" d="M21.36,9.78c.07.93-.09,2.05-.7,2.11-1,.09-.48-1-.47-1.69A3.26,3.26,0,0,0,17,6.92c-.46,0-1.52.31-1.36-.66.07-.43.43-.42.8-.47a4.27,4.27,0,0,1,5,4Z"/><path class="cls-3" d="M16.91,12c1.17.64,2.57,1,2.34,2.86a3.63,3.63,0,0,1-.61,1.45c-2,2.77-7.94,3.93-11.66,1.83-1.25-.71-2.54-1.74-2.34-3.79a7.37,7.37,0,0,1,2.53-4.31,8.22,8.22,0,0,1,3.89-2.39c1.73-.44,2.25,1,1.78,2.44,1-.07,3.13-1.19,4.08-.09a2.13,2.13,0,0,1,0,2Zm-1.26,4.5a2.82,2.82,0,0,0,.75-1.83c0-2.33-2.94-3.19-5.25-3a6.51,6.51,0,0,0-3,.89,3.45,3.45,0,0,0-1.78,2.15c-.47,2.34,2.07,3.43,3.93,3.56A6.86,6.86,0,0,0,15.65,16.53Z"/><path class="cls-2" d="M19.07,9.78c.1.71-.11,1.33-.52,1.36-.68,0-.43-.47-.47-1.08a1.28,1.28,0,0,0-.61-.94c-.53-.25-1.36.18-1.36-.56,0-.55.48-.49.75-.52A2,2,0,0,1,19.07,9.78Z"/><path d="M13.59,14.47c1,3-4.2,4.42-5.15,1.83-.64-1.73.89-3.11,2.48-3.28A2.41,2.41,0,0,1,13.59,14.47ZM11.2,15a.35.35,0,0,0,.66-.19C11.8,14.46,11.19,14.51,11.2,15Zm-.84,1.59c.87-.21,1-1.85-.33-1.55C8.92,15.29,9.13,16.86,10.36,16.57Z"/></g></svg>