<svg xmlns="http://www.w3.org/2000/svg" viewBox="0 0 25 25"><defs><style>.cls-1{fill:#2daae1;}.cls-2{fill:#fff;}</style></defs><title>icon_twitter</title><g id="twitter"><circle class="cls-1" cx="12.5" cy="12.5" r="10.5"/><path class="cls-2" d="M20.24,8.11a6.33,6.33,0,0,1-1.82.5,3.18,3.18,0,0,0,1.39-1.75,6.33,6.33,0,0,1-2,.77,3.17,3.17,0,0,0-5.48,2.17,3.2,3.2,0,0,0,.08.72A9,9,0,0,1,5.87,7.21a3.17,3.17,0,0,0,1,4.23A3.15,3.15,0,0,1,5.42,11v0A3.17,3.17,0,0,0,8,14.19a3.15,3.15,0,0,1-.83.11,3.22,3.22,0,0,1-.6-.06,3.17,3.17,0,0,0,3,2.2A6.38,6.38,0,0,1,4.8,17.75a9,9,0,0,0,13.87-7.59q0-.21,0-.41a6.45,6.45,0,0,0,1.58-1.64Z"/></g></svg>