<svg xmlns="http://www.w3.org/2000/svg" viewBox="0 0 25 25"><defs><style>.cls-1{fill:#1ab7ea;}.cls-2{fill:#fff;}</style></defs><title>icon_vimeo</title><g id="vimeo"><circle class="cls-1" cx="12.5" cy="12.5" r="10.5"/><path class="cls-2" d="M9.79,20.21c-.86-.71-1.21-1.5-2.07-4.82s-1.36-4.53-1.86-4.71a3.49,3.49,0,0,0-1.64.57c-.25-.32-.5-.61-.75-.93L4.86,9C7.26,6.76,8.51,6.19,9.54,6.9c.68.46,1,1.21,1.39,3.64.54,3,.93,4.35,1.36,4.75s.39.29.93-.21a7.84,7.84,0,0,0,1.93-3.89c0-1-.43-1.25-1.53-1.07l-.75.11.32-.79a5.66,5.66,0,0,1,2.43-2.71,4,4,0,0,1,3.28,0c.79.46,1.07,1.43,1,3s-1,3.46-3,6.18c-3,4.07-5.46,5.5-7,4.18l-.07.11Z"/></g></svg>