<svg xmlns="http://www.w3.org/2000/svg" xmlns:xlink="http://www.w3.org/1999/xlink" viewBox="0 0 25 25"><defs><style>.cls-1{fill:url(#未命名漸層_9);}.cls-2{fill:#fff;}</style><linearGradient id="未命名漸層_9" x1="12.5" y1="23" x2="12.5" y2="2" gradientUnits="userSpaceOnUse"><stop offset="0" stop-color="#fb2a7f"/><stop offset="1" stop-color="#fd6c48"/></linearGradient></defs><title>icon_meipai</title><g id="meipai"><rect class="cls-1" x="2" y="2" width="21" height="21" rx="5" ry="5"/><path class="cls-2" d="M16.75,14.77c0,.36,0,.69-.07,1a2,2,0,0,1-1.3,1.71,2.29,2.29,0,0,1-.87.08H6.28a2.16,2.16,0,0,1-1.69-.65,1.88,1.88,0,0,1-.49-1.31c0-2.06,0-4.13,0-6.19A1.82,1.82,0,0,1,5.16,7.65a2.23,2.23,0,0,1,1-.22c2.52,0,5,0,7.57,0a8.35,8.35,0,0,1,1.37.07,2,2,0,0,1,1.58,1.57,4.37,4.37,0,0,1,.06.88c0,.26.06.28.27.14l3.13-2L20.32,8c.36-.21.59-.08.59.34q0,4.15,0,8.29c0,.47-.23.59-.62.35ZM8.27,12.49h0c0,.84,0,1.68,0,2.52,0,.35.14.44.42.27l4-2.51c.3-.19.3-.33,0-.53l-4-2.47c-.11-.07-.22-.18-.35-.1s-.11.23-.11.36Q8.27,11.26,8.27,12.49Z"/></g></svg>