<svg xmlns="http://www.w3.org/2000/svg" viewBox="0 0 22.83 14.7"><defs><style>.cls-1{fill:#878787;}</style></defs><title>icon_eye</title><g id="圖層_32" data-name="圖層 32"><path class="cls-1" d="M12.82,20.52a12.89,12.89,0,0,1-9.21-3.86c-.42-.41-.77-.88-.27-1.4s1-.15,1.47.27c5.28,5,12.7,4.3,16.92-1.56a1.16,1.16,0,0,0,0-1.6C16.93,5.6,7.65,5.85,3.1,12.88c-.34.53-.6,1.46-1.48.94s-.24-1.25.12-1.81c5.35-8.37,16.71-8.24,21.88.22a1.33,1.33,0,0,1,.15,1.59C21.17,18,17.52,20.34,12.82,20.52Z" transform="translate(-1.14 -5.81)"/><path class="cls-1" d="M16.67,13.19a4.08,4.08,0,1,1-4-4.12A4.1,4.1,0,0,1,16.67,13.19Zm-1.63,0a2.44,2.44,0,1,0-2.5,2.41A2.47,2.47,0,0,0,15,13.18Z" transform="translate(-1.14 -5.81)"/></g></svg>