<svg xmlns="http://www.w3.org/2000/svg" viewBox="0 0 25 25"><defs><style>.cls-1{fill:#fff;}.cls-2{fill:#e53b20;}.cls-3{fill:#1ba4dd;}</style></defs><title>icon_youku</title><g id="youku"><circle class="cls-1" cx="12.5" cy="12.5" r="10.5"/><path class="cls-2" d="M11.7,7.3a1.36,1.36,0,0,0-.77.23c-.51.35-.8,1.45-1.14,2.22A25.63,25.63,0,0,1,8.71,12.1C7.71,11,7,8.45,5.82,7.53a1.61,1.61,0,0,0-1.62,0c-1,.78,0,2.16.42,2.89.92,1.59,1.93,3.29,2.71,4.75-.5,1.33-3,5.08.36,4.87a5.76,5.76,0,0,0,1.62-2.65c.92-2.05,1.7-3.83,2.65-6,.39-.88,1.34-2.19,1.14-3.19a1.39,1.39,0,0,0-1.39-1Z"/><path class="cls-3" d="M20,8.11a1.32,1.32,0,0,0-1.2.68A12.29,12.29,0,0,1,17.6,9.94a4.1,4.1,0,0,1-.66.66,3.61,3.61,0,0,1-.9.84V9.1c0-1.28-2.4-1.28-2.4,0v6.67c.1.48.32.84.84.9h.72a1,1,0,0,0,.84-.9V14.33c0-.5-.09-1.34.24-.84.49.48,1.18,1,1.8,1.56s1.17,1.43,1.8,1.56a1.24,1.24,0,0,0,1.38-1.86c-.5-1-2-1.56-2.59-2.4.42-1,2.72-1.56,2.52-3.25a1.16,1.16,0,0,0-1.26-1h0Z"/></g></svg>