<svg xmlns="http://www.w3.org/2000/svg" viewBox="0 0 290.59 253.38"><defs><style>.cls-1{fill:#221815;}</style></defs><title>工作區域 82</title><g id="圖層_1" data-name="圖層 1"><path class="cls-1" d="M212.72,74.65c-1.19-8.46.6-16.92-6.54-32.37S187.42,18.66,180,12,167.11,0,145.33,0h-.07C123.47,0,118,5.25,110.61,12s-19,14.88-26.2,30.33-5.35,23.91-6.55,32.37S70.72,85.73,71,91.56s-1.36,8.82,4.3,13.49,0,9.54,0,14.5,8.64,12,8.64,12A22.62,22.62,0,0,1,85.9,140c.3,5.25,3.54,21.6,11.28,30.65s28,26.17,48,26.21h.12c20,0,40.3-17.18,48-26.21s11-25.4,11.34-30.65a27.8,27.8,0,0,1,1.78-8.69s8.74-6.79,8.74-11.75-5.66-9.9,0-14.57,4.06-7.56,4.36-13.39-5.66-8.46-6.85-16.91m-36.65,56.53s-7.51-.78-13.32-4.28-10.72-4.37-17.45-4.37-11.71.87-17.52,4.37-13.26,4.28-13.26,4.28c-29,0-30.46-47.62-30.46-47.62s10.4,21.49,61.17,21.49h.12c50.78,0,61.27-21.7,61.27-21.7s-1.57,47.83-30.55,47.83"/><path class="cls-1" d="M286.13,240,282,231.65l4.15-8.31-8.31,4.21-8.3-4.21,4.15,8.31L269.52,240l8.3-4.16Zm-10.38-8.31a2.08,2.08,0,1,1,2.07,2.08,2.08,2.08,0,0,1-2.07-2.08"/><polygon class="cls-1" points="78.48 228.65 122.59 228.65 123.79 223.46 71.55 223.46 68.1 236.63 63.48 236.63 62.17 241.65 66.78 241.65 63.7 253.38 115.94 253.38 117.55 246.74 73.45 246.74 74.79 241.65 119.12 241.65 120.35 236.63 76.06 236.63 78.48 228.65"/><polygon class="cls-1" points="216.93 228.49 238.64 228.49 239.92 223.46 188.55 223.46 187.27 228.49 208.73 228.49 203.94 246.73 182.47 246.73 180.72 253.32 232.09 253.32 233.84 246.73 212.13 246.73 216.93 228.49"/><polygon class="cls-1" points="246.23 246.73 252.06 223.46 244.87 223.46 237.01 253.38 288.57 253.38 290.59 246.73 246.23 246.73"/><path class="cls-1" d="M58.3,223.34l-20.61,2.83H31.47l-19.19-2.83q-4.39,0-6.31,7.31L0,253.38H6.44L12,232.32c.82-1.24,1.53-1.92,2.14-2L30,232.5l-5.71,20.88h6.31L36.3,232.5l16.83-2.22q.61.24,1.2,2L48.8,253.38h6.32l6-22.73c1.28-4.87.34-7.31-2.79-7.31"/><path class="cls-1" d="M179.13,223.34l-20.61,2.83H152.3l-19.19-2.83q-4.4,0-6.31,7.31l-6,22.73h6.44l5.53-21.06c.82-1.24,1.53-1.92,2.14-2l15.88,2.22-5.71,20.88h6.31l5.71-20.88L174,230.28q.61.24,1.2,2l-5.52,21.06H176l6-22.73q1.92-7.31-2.79-7.31"/></g></svg>