<svg id="圖層_2" data-name="圖層 2" xmlns="http://www.w3.org/2000/svg" viewBox="0 0 31.57 31.57"><defs><style>.cls-1{fill:#231f20;}.cls-2{fill:#fff;}</style></defs><title>工作區域 36</title><circle class="cls-1" cx="15.78" cy="15.78" r="14.72"/><path class="cls-2" d="M15.78,0A15.78,15.78,0,1,0,31.57,15.78,15.78,15.78,0,0,0,15.78,0Zm0,29.92c-7.4,0-14.13-6.74-14.13-14.13S8.39,1.65,15.78,1.65,29.92,8.39,29.92,15.78,23.18,29.92,15.78,29.92Z"/><path class="cls-2" d="M23.7,11.55a9.37,9.37,0,0,0-.77-3.8,10.55,10.55,0,0,0-3.07-3.56c-.87-.79-1.51-1.4-4.07-1.4h0c-2.56,0-3.19.62-4.07,1.4A10.55,10.55,0,0,0,8.64,7.75a9.37,9.37,0,0,0-.77,3.8c-.14,1-.84,1.3-.8,2s-.16,1,.5,1.58,0,1.12,0,1.7,1,1.41,1,1.41a2.64,2.64,0,0,1,.23,1,7.33,7.33,0,0,0,1.32,3.6c.91,1.06,3.28,3.07,5.64,3.08h0c2.35,0,4.73-2,5.64-3.08a7.35,7.35,0,0,0,1.33-3.6,3.28,3.28,0,0,1,.21-1s1-.8,1-1.38-.66-1.16,0-1.71.48-.89.51-1.57S23.84,12.54,23.7,11.55Zm-4.3,6.63a4.35,4.35,0,0,1-1.56-.5,3.58,3.58,0,0,0-2-.51,3.6,3.6,0,0,0-2.05.51,4.34,4.34,0,0,1-1.56.5c-3.4,0-3.57-5.59-3.57-5.59s1.22,2.52,7.18,2.52h0c6,0,7.19-2.55,7.19-2.55S22.8,18.19,19.39,18.19Z"/><path class="cls-2" d="M24.87,23.55l-.57-.1q-.07-.28-.15-.55-.11.3-.23.6l-.59.22.55.16q.06.28.11.57.15-.3.28-.61Zm-.89.22a.15.15,0,1,1,.19,0A.14.14,0,0,1,24,23.77Z"/><path class="cls-2" d="M9.85,26.93q.67-.64,1.28-1.34a11.23,11.23,0,0,0,3.29.93l-.12.29a11.54,11.54,0,0,1-2.86-.76l-.38.41a12.06,12.06,0,0,0,3,.84l-.1.21a12.28,12.28,0,0,1-3-.87l-.23.25a12.59,12.59,0,0,0,3.1.92l-.18.37A13,13,0,0,1,9.85,26.93Z"/><path class="cls-2" d="M18.5,27.69A12.59,12.59,0,0,0,20,27.25q0-.56-.05-1.12a11.5,11.5,0,0,1-1.38.43q0-.15,0-.31a11.16,11.16,0,0,0,3.12-1.32l.08.3a11.44,11.44,0,0,1-1.32.69q.07.56.11,1.12A12.49,12.49,0,0,0,22,26.33l.07.4a12.93,12.93,0,0,1-3.66,1.36Q18.48,27.89,18.5,27.69Z"/><path class="cls-2" d="M25.59,23.93a13,13,0,0,1-3.14,2.62q-.19-.91-.45-1.79l.4-.28q.24.67.44,1.36a12.66,12.66,0,0,0,2.56-2.29Z"/><path class="cls-2" d="M7.3,25.2q.57-.32,1.12-.67-.4-.41-.77-.86a.31.31,0,0,0-.2,0q-.58.29-1.19.55l-.35-.4q.67-.25,1.31-.54c.27-.12.48-.12.62,0a11.56,11.56,0,0,0,.89,1l.34.26a11,11,0,0,0,1.27.61c.18.1.17.26,0,.47s-.68.65-1,1l-.42-.25q.51-.41,1-.84c0-.07,0-.12,0-.15a11.38,11.38,0,0,1-1.06-.55q-.53.37-1.09.71Z"/><path class="cls-2" d="M15.79,28.37q.22-.61.39-1.23-.54,0-1.07-.15a.29.29,0,0,0-.15.11q-.23.6-.5,1.2L14,28.24q.32-.63.59-1.27c.12-.28.27-.41.46-.39a11.3,11.3,0,0,0,1.25.18l.41,0A11.34,11.34,0,0,0,18,26.39c.2,0,.29.08.27.38q-.06.7-.16,1.39l-.47.08q.12-.64.2-1.28-.06-.1-.1-.11-.55.16-1.12.26-.15.63-.35,1.25Z"/><path class="cls-2" d="M14.07,27.26A12,12,0,0,1,10.29,26l-.22.22a12.27,12.27,0,0,0,3.88,1.27Z"/></svg>