<svg xmlns="http://www.w3.org/2000/svg" xmlns:xlink="http://www.w3.org/1999/xlink" viewBox="0 0 29.42 29.42"><defs><style>.cls-1{fill:none;}.cls-2{clip-path:url(#clip-path);}.cls-3{fill:#fff;}.cls-4{fill:#9c0a30;}.cls-5{fill:#002868;}</style><clipPath id="clip-path"><path class="cls-1" d="M29.3,12.8A14.71,14.71,0,1,1,16.62.12,14.72,14.72,0,0,1,29.3,12.8Z"/></clipPath></defs><title>工作區域 39</title><g id="圖層_3" data-name="圖層 3"><g class="cls-2"><rect class="cls-3" width="55.89" height="29.42"/><rect class="cls-4" width="55.89" height="2.26"/><rect class="cls-4" y="4.53" width="55.89" height="2.26"/><rect class="cls-4" y="9.05" width="55.89" height="2.26"/><rect class="cls-4" y="13.58" width="55.89" height="2.26"/><rect class="cls-4" y="18.1" width="55.89" height="2.26"/><rect class="cls-4" y="22.63" width="55.89" height="2.26"/><rect class="cls-4" y="27.16" width="55.89" height="2.26"/><rect class="cls-3" x="3.93" y="-2.77" width="14.7" height="21.37" transform="translate(3.34 19.17) rotate(-89.86)"/><rect class="cls-5" x="3.86" y="12.61"/><path class="cls-5" d="M0,0V15.84H22.36V0ZM21,8.78l-.53-.39L20,8.78l.2-.63-.53-.39h.66l.2-.62.2.62h.66l-.53.39Zm-.78-7.49.21-.63.2.63h.66l-.54.38L21,2.3l-.53-.39-.54.39.21-.63-.54-.38Zm-1.07,5.9-.53-.39-.54.39.21-.63-.53-.39h.65l.21-.62.2.62h.66L19,6.56ZM17.32,8.78l-.54-.39-.53.39.2-.63-.53-.39h.66l.2-.62.21.62h.66l-.54.39Zm-.78-7.49.2-.63.2.63h.66l-.53.38.2.63-.53-.39-.53.39.2-.63-.53-.38Zm-1.08,5.9-.53-.39-.53.39.2-.63-.53-.39h.66l.2-.62.2.62h.66l-.53.39ZM13.61,8.78l-.53-.39-.54.39.21-.63-.53-.39h.65l.21-.62.2.62h.66l-.53.39Zm-.78-7.49L13,.66l.21.63h.65l-.53.38.2.63L13,1.91l-.53.39.2-.63-.53-.38Zm-1.07,5.9-.54-.39-.53.39.2-.63-.53-.39H11l.2-.62.21.62h.66l-.54.39ZM9.9,8.78l-.53-.39-.53.39L9,8.15l-.53-.39h.66l.2-.62.2.62h.66l-.53.39ZM9.12,1.29,9.33.66l.2.63h.66l-.53.38.2.63-.53-.39-.54.39L9,1.67l-.54-.38ZM8.05,7.19,7.52,6.8,7,7.19l.21-.63-.53-.39h.65l.21-.62.2.62h.66l-.53.39ZM6.2,8.78l-.54-.39-.53.39.2-.63L4.8,7.76h.66l.2-.62.21.62h.66L6,8.15ZM5.42,1.29l.2-.63.2.63h.66L6,1.67l.2.63-.53-.39-.53.39.2-.63-.53-.38ZM4.34,7.19,3.81,6.8l-.53.39.2-.63L3,6.17h.66l.2-.62.2.62h.66l-.53.39ZM2.49,8.78,2,8.39l-.54.39.21-.63L1.1,7.76h.65L2,7.14l.2.62h.66l-.53.39ZM1.71,1.29l.2-.63.21.63h.65l-.53.38.2.63-.53-.39-.53.39.2-.63-.53-.38Zm0,3.17.2-.62.21.62h.65l-.53.39.2.63-.53-.39-.53.39.2-.63-.53-.39Zm0,6.37.21-.62.2.62H2.8l-.53.39.2.63-.53-.39-.53.39.2-.63-.53-.39Zm.81,4.1L2,14.54l-.53.39.2-.62-.53-.39h.66l.2-.63.2.63h.66l-.53.39Zm1-12.06.21-.62.2.62h.66l-.54.39.21.63L3.77,3.5l-.54.39.21-.63L2.9,2.87Zm0,6.37.2-.62.2.62h.66l-.53.39.2.63-.53-.39-.53.39.2-.63-.53-.39Zm.81,4.1L3.86,13l-.53.38.21-.62L3,12.33h.66l.2-.63.21.63h.66l-.54.39Zm1-8.88.2-.62.2.62h.66L6,4.85l.2.63-.53-.39-.53.39.2-.63-.53-.39Zm0,6.37.2-.62.21.62h.66L6,11.22l.21.63-.54-.39-.53.39.21-.63-.54-.39Zm.81,4.1-.53-.39-.53.39.2-.62-.53-.39h.65l.21-.63.2.63h.66l-.53.39Zm1-12.06.2-.62.21.62h.65l-.53.39.2.63L7.47,3.5l-.53.39.2-.63-.53-.39Zm0,6.37.21-.62.2.62h.66l-.53.39.2.63L7.5,9.87,7,10.26l.2-.63-.53-.39Zm.81,4.1L7.57,13,7,13.34l.2-.62-.53-.39h.66l.2-.63.21.63h.65l-.53.39Zm1-8.88.21-.62.2.62h.66l-.53.39.2.63-.53-.39-.54.39L9,4.85l-.54-.39Zm0,6.37.2-.62.2.62h.66l-.53.39.2.63-.53-.39-.53.39.2-.63-.53-.39Zm.81,4.1-.54-.39-.53.39.21-.62-.54-.39h.66l.2-.63.21.63h.66l-.54.39ZM11,2.87l.2-.62.2.62H12l-.53.39.2.63-.53-.39-.53.39.2-.63-.53-.39Zm0,6.37.2-.62.21.62h.66l-.54.39.21.63-.54-.39-.53.39.21-.63-.54-.39Zm.81,4.1L11.28,13l-.53.38.2-.62-.53-.39h.65l.21-.63.2.63h.66l-.53.39Zm1-8.88.2-.62.21.62h.65l-.53.39.2.63L13,5.09l-.53.39.2-.63-.53-.39Zm0,6.37.21-.62.2.62h.66l-.53.39.2.63-.53-.39-.53.39.2-.63-.53-.39Zm.81,4.1-.53-.39-.53.39.2-.62-.53-.39h.66l.2-.63.21.63H14l-.53.39Zm1-12.06.21-.62.2.62h.66l-.53.39.2.63-.53-.39-.54.39.21-.63L14,2.87Zm0,6.37.2-.62.2.62h.66l-.53.39.2.63-.53-.39-.53.39.2-.63-.53-.39Zm.81,4.1L15,13l-.53.38.21-.62-.54-.39h.66l.2-.63.21.63h.66l-.54.39Zm1-8.88.2-.62.2.62h.66l-.53.39.2.63-.53-.39-.53.39.2-.63-.53-.39Zm0,6.37.2-.62.21.62h.66l-.54.39.21.63-.54-.39-.53.39.21-.63-.54-.39Zm.81,4.1-.53-.39-.53.39.2-.62L16,13.92h.65l.21-.63.2.63h.66l-.53.39Zm1-12.06.2-.62.21.62h.65l-.53.39.21.63-.54-.39-.53.39.2-.63-.53-.39Zm0,6.37.21-.62.2.62h.66L19,9.63l.2.63-.53-.39-.53.39.2-.63-.53-.39Zm.81,4.1L18.69,13l-.53.38.2-.62-.53-.39h.66l.2-.63.21.63h.65l-.53.39Zm1-8.88.21-.62.2.62h.66l-.54.39.21.63-.53-.39-.54.39.21-.63-.54-.39Zm0,6.37.2-.62.2.62h.66l-.53.39.2.63-.53-.39-.53.39.2-.63-.53-.39Zm.81,4.1-.54-.38-.53.38.21-.62-.54-.39h.66l.2-.63.21.63h.66l-.54.39Z"/></g></g></svg>