<svg xmlns="http://www.w3.org/2000/svg" xmlns:xlink="http://www.w3.org/1999/xlink" viewBox="0 0 75.59 75.59"><defs><style>.cls-1{fill:none;}.cls-2{clip-path:url(#clip-path);}.cls-3{fill:#fff;}.cls-4{fill:#9c0a30;}.cls-5{fill:#002868;}.cls-6{clip-path:url(#clip-path-2);}</style><clipPath id="clip-path"><circle id="SVGID" class="cls-1" cx="37.8" cy="37.8" r="37.8"/></clipPath><clipPath id="clip-path-2"><rect class="cls-1" x="-1263.32" y="-580.54" width="1200" height="462.38"/></clipPath></defs><title>工作區域 77</title><g id="圖層_1" data-name="圖層 1"><g class="cls-2"><rect class="cls-3" width="143.62" height="75.59"/><rect class="cls-4" width="143.62" height="5.81"/><rect class="cls-4" y="11.63" width="143.62" height="5.82"/><rect class="cls-4" y="23.26" width="143.62" height="5.81"/><rect class="cls-4" y="34.89" width="143.62" height="5.81"/><rect class="cls-4" y="46.52" width="143.62" height="5.82"/><rect class="cls-4" y="58.15" width="143.62" height="5.81"/><rect class="cls-4" y="69.78" width="143.62" height="5.81"/><rect class="cls-3" x="10.1" y="-7.12" width="37.78" height="54.9" transform="matrix(0, -1, 1, 0, 8.58, 49.27)"/><polygon class="cls-5" points="19.45 32.4 19.46 32.4 19.45 32.4 19.45 32.4"/><polygon class="cls-5" points="9.93 32.4 9.93 32.4 9.93 32.4 9.93 32.4 9.93 32.4"/><path class="cls-5" d="M0,0V40.7H57.45V0ZM54,22.55l-1.37-1-1.37,1,.53-1.61-1.37-1h1.69l.52-1.61L53.17,20h1.7l-1.37,1ZM52,3.3l.53-1.6.52,1.6h1.69l-1.37,1,.52,1.61-1.36-1-1.37,1,.52-1.61-1.37-1ZM49.26,18.47l-1.37-1-1.37,1L47,16.86l-1.37-1h1.7l.52-1.61.52,1.61H50.1l-1.37,1ZM44.5,22.55l-1.37-1-1.37,1,.52-1.61-1.37-1H42.6l.53-1.61L43.65,20h1.69l-1.37,1Zm-2-19.25L43,1.7l.52,1.6h1.7l-1.37,1,.52,1.61L43,4.91l-1.37,1,.53-1.61-1.37-1ZM39.73,18.47l-1.37-1-1.36,1,.52-1.61-1.37-1h1.69l.52-1.61.53,1.61h1.69l-1.37,1ZM35,22.55l-1.37-1-1.37,1,.53-1.61-1.37-1h1.69l.52-1.61L34.13,20h1.69l-1.37,1ZM33,3.3l.53-1.6L34,3.3H35.7l-1.37,1,.53,1.61-1.37-1-1.37,1,.52-1.61-1.37-1ZM30.21,18.47l-1.37-1-1.37,1L28,16.86l-1.36-1h1.69l.52-1.61.52,1.61h1.69l-1.36,1Zm-4.76,4.08-1.37-1-1.37,1,.52-1.61-1.37-1h1.69l.53-1.61L24.6,20h1.69l-1.37,1Zm-2-19.25L24,1.7l.53,1.6h1.69l-1.37,1,.52,1.61L24,4.91l-1.37,1,.53-1.61-1.37-1ZM20.68,18.47l-1.36-1-1.37,1,.52-1.61-1.37-1h1.69l.53-1.61.52,1.61h1.69l-1.37,1Zm-4.76,4.08-1.37-1-1.37,1,.53-1.61-1.37-1H14l.52-1.61L15.08,20h1.69l-1.37,1Zm-2-19.25.52-1.6L15,3.3h1.69l-1.37,1,.53,1.61-1.37-1-1.37,1,.52-1.61-1.37-1ZM11.16,18.47l-1.37-1-1.37,1,.52-1.61-1.36-1H9.27l.52-1.61.52,1.61H12l-1.36,1ZM6.4,22.55,5,21.56l-1.37,1,.52-1.61L2.81,20h1.7L5,18.34,5.55,20H7.24l-1.37,1ZM4.39,3.3l.52-1.6.53,1.6H7.13l-1.37,1,.52,1.61-1.37-1-1.37,1L4.07,4.3,2.7,3.3Zm0,8.17.52-1.61.53,1.61H7.13l-1.37,1,.52,1.61-1.37-1-1.37,1,.53-1.61-1.37-1Zm.07,16.37L5,26.23l.52,1.61H7.19l-1.37,1,.53,1.61L5,29.44l-1.37,1,.52-1.61-1.36-1ZM6.54,38.37l-1.37-1-1.37,1,.52-1.61L3,35.77h1.7l.52-1.61.52,1.61H7.38L6,36.76Zm2.61-31,.53-1.61.52,1.61h1.69l-1.37,1L11,10,9.68,9,8.31,10l.52-1.61-1.37-1Zm.07,16.36.52-1.61.52,1.61H12l-1.37,1,.52,1.61-1.37-1-1.37,1,.53-1.61-1.37-1ZM11.3,34.29l-1.37-1-1.37,1,.53-1.61-1.37-1H9.41l.52-1.61.52,1.61h1.7l-1.37,1Zm2.62-22.82.52-1.61L15,11.47h1.69l-1.37,1,.53,1.61-1.37-1-1.37,1,.52-1.61-1.37-1ZM14,27.84l.52-1.61L15,27.84h1.69l-1.37,1,.52,1.61-1.37-1-1.36,1,.52-1.61-1.37-1Zm2.08,10.53-1.37-1-1.36,1,.52-1.61-1.37-1h1.69l.52-1.61.53,1.61h1.69l-1.37,1Zm2.62-31,.52-1.61.52,1.61h1.69l-1.36,1L20.57,10,19.2,9l-1.37,1,.53-1.61L17,7.39Zm.06,16.36.53-1.61.52,1.61h1.69l-1.37,1,.52,1.61-1.36-1-1.37,1,.52-1.61-1.37-1Zm2.08,10.54-1.36-1-1.37,1,.52-1.61-1.37-1h1.69l.53-1.61L20,31.68h1.69l-1.37,1Zm2.62-22.82L24,9.86l.53,1.61h1.69l-1.37,1,.52,1.61-1.37-1-1.37,1,.53-1.61-1.37-1Zm.07,16.37L24,26.23l.52,1.61h1.69l-1.37,1,.53,1.61-1.37-1-1.37,1,.52-1.61-1.37-1Zm2.08,10.53-1.37-1-1.37,1,.52-1.61-1.37-1h1.69l.53-1.61.52,1.61h1.69l-1.37,1Zm2.61-31,.53-1.61.52,1.61h1.69l-1.37,1L30.09,10,28.73,9l-1.37,1,.52-1.61-1.37-1Zm.07,16.36.52-1.61.52,1.61H31l-1.36,1,.52,1.61-1.37-1-1.37,1,.52-1.61-1.36-1Zm2.08,10.54-1.37-1-1.37,1,.52-1.61-1.36-1h1.69L29,30.07l.52,1.61h1.69l-1.36,1ZM33,11.47l.53-1.61L34,11.47H35.7l-1.37,1,.53,1.61-1.37-1-1.37,1,.52-1.61-1.37-1ZM33,27.84l.52-1.61.53,1.61h1.69l-1.37,1,.52,1.61-1.37-1-1.37,1,.53-1.61-1.37-1Zm2.08,10.53-1.37-1-1.37,1,.53-1.61-1.37-1h1.69l.52-1.61.53,1.61H36l-1.37,1Zm2.62-31,.52-1.61.52,1.61h1.69l-1.36,1L39.62,10,38.25,9l-1.37,1,.52-1.61L36,7.39Zm.06,16.36.53-1.61.52,1.61h1.69l-1.37,1,.52,1.61-1.37-1-1.36,1,.52-1.61-1.37-1Zm2.08,10.54-1.37-1-1.36,1,.52-1.61-1.37-1H38l.52-1.61L39,31.68h1.69l-1.37,1Zm2.62-22.82L43,9.86l.52,1.61h1.7l-1.37,1,.52,1.61-1.37-1-1.37,1,.53-1.61-1.37-1Zm.06,16.37.53-1.61.52,1.61h1.69l-1.37,1,.53,1.61-1.37-1-1.37,1,.52-1.61-1.37-1Zm2.08,10.53-1.36-1-1.37,1,.52-1.61-1.37-1h1.69l.53-1.61.52,1.61h1.69l-1.37,1Zm2.62-31,.52-1.61.53,1.61H50l-1.37,1L49.14,10,47.77,9l-1.36,1,.52-1.61-1.37-1Zm.07,16.36.52-1.61.52,1.61h1.69l-1.36,1,.52,1.61-1.37-1-1.37,1L47,24.75l-1.36-1ZM49.4,34.29l-1.37-1-1.37,1,.52-1.61-1.37-1h1.7L48,30.07l.52,1.61h1.69l-1.37,1ZM52,11.47l.53-1.61.52,1.61h1.69l-1.37,1,.52,1.61-1.36-1-1.37,1,.52-1.61-1.37-1Zm.07,16.37.52-1.61.52,1.61h1.7l-1.37,1L54,30.44l-1.37-1-1.37,1,.53-1.61-1.37-1Zm2.08,10.53-1.37-1-1.37,1,.52-1.61-1.36-1h1.69l.52-1.61.52,1.61H55l-1.37,1Z"/></g></g><g id="圖層_3" data-name="圖層 3"><g class="cls-6"><image width="3024" height="4032" transform="translate(-1478.08 11.16) rotate(-70.81) scale(0.34)" xlink:href="../../../../../Desktop/MEMIL網站/MEMIL全檔案夾(_F)/Links/IMG_2204.JPG"/></g></g></svg>