<svg xmlns="http://www.w3.org/2000/svg" xmlns:xlink="http://www.w3.org/1999/xlink" viewBox="0 0 75.59 75.59"><defs><style>.cls-1{fill:none;}.cls-2{clip-path:url(#clip-path);}.cls-3{fill:red;}.cls-4{fill:#000089;}.cls-5{fill:#fff;}.cls-6{clip-path:url(#clip-path-2);}</style><clipPath id="clip-path"><circle class="cls-1" cx="37.8" cy="37.8" r="37.8" transform="translate(-15.66 37.8) rotate(-45)"/></clipPath><clipPath id="clip-path-2"><rect class="cls-1" x="-1263.32" y="-444.58" width="1200" height="462.38"/></clipPath></defs><title>工作區域 74</title><g id="圖層_1" data-name="圖層 1"><g class="cls-2"><rect class="cls-3" x="-0.9" y="0.05" width="113.72" height="75.81"/><rect class="cls-4" x="-0.9" y="0.05" width="56.86" height="37.91"/><path class="cls-5" d="M31.32,19,27.53,33.22,23.74,19,27.53,4.79Zm-3.79,3.79L41.75,19,27.53,15.21,13.32,19Z"/><path class="cls-5" d="M30.82,20.9,20.43,31.31l3.82-14.2L34.64,6.69Zm-5.18,1.38,14.2,3.83L29.43,15.72,15.22,11.89Z"/><path class="cls-5" d="M29.43,22.28,15.22,26.11,25.64,15.72l14.2-3.83ZM24.25,20.9,34.64,31.31l-3.82-14.2L20.43,6.69Z"/><path class="cls-4" d="M27.53,11a8.06,8.06,0,1,1-8,8.05A8.05,8.05,0,0,1,27.53,11Z"/><path class="cls-5" d="M27.53,11.89A7.11,7.11,0,1,1,20.43,19,7.11,7.11,0,0,1,27.53,11.89Z"/></g></g><g id="圖層_3" data-name="圖層 3"><g class="cls-6"><image width="3024" height="4032" transform="translate(-1478.08 147.13) rotate(-70.81) scale(0.34)" xlink:href="../../../../../Desktop/MEMIL網站/MEMIL全檔案夾(_F)/Links/IMG_2204.JPG"/></g></g></svg>