<svg xmlns="http://www.w3.org/2000/svg" viewBox="0 0 106.64 74.11"><defs><style>.cls-1{fill:#231815;}</style></defs><title>工作區域 39</title><g id="圖層_3" data-name="圖層 3"><g id="_群組_" data-name="&lt;群組&gt;"><g id="_群組_2" data-name="&lt;群組&gt;"><g id="_群組_3" data-name="&lt;群組&gt;"><g id="_群組_4" data-name="&lt;群組&gt;"><path id="_複合路徑_" data-name="&lt;複合路徑&gt;" class="cls-1" d="M105.21,17.18c1.6,2,1.85,5.29.79,10.12l-1.5,6.85-1.89-.07.77-3.49-2.16,2L100.9,34h-.26l-2.92-.09-2.47-2.28-.48,2.17c-1.82-.06-3.85-.11-6-.16l-5.17-.11,2.16-9.87H57.32a.33.33,0,0,1,0-.09c.27-1.21.54-2.4.79-3.56l1.95,1.8h4.06l-3.32-3.06H58.41c.56-2.56,1.07-5,1.53-7.16.52-2.5,1-4.71,1.31-6.52h31.7a5.7,5.7,0,0,1,4.7,2,6.57,6.57,0,0,1,1.25,3A5.39,5.39,0,0,1,102.74,12a7.31,7.31,0,0,1,1.39,4.25A4.5,4.5,0,0,1,105.21,17.18Zm-1.91,5.92,1.46-1.35a6.38,6.38,0,0,0-.71-2.93,28.53,28.53,0,0,1-.53,3.25Zm1.45-.07-1.8,1.66L101.56,31l2.16-2,.46-2.09A25,25,0,0,0,104.75,23ZM99,13.69l3.3,3.05a5.91,5.91,0,0,0-1-3.62,3.38,3.38,0,0,0-2.23-1.18A16.53,16.53,0,0,1,99,13.69Zm3.16,5.45-3.48-3.2c-.07.39-.14.79-.23,1.21L98,19.07l3.54,3.27.15-.66C101.9,20.76,102,19.92,102.14,19.13Zm-1.74,8.42.68-3.11-3.54-3.27-.68,3.12Zm-1.15,5.22.68-3.12L96.4,26.4l-.68,3.12ZM84,18.74l2.19,2a1.68,1.68,0,0,0-.28-1,3.61,3.61,0,0,0-1.45-1.05Zm-3.5,3.06h4.07l-3.32-3.05H77.2Zm-6.81,0h4.06l-3.32-3.06H70.39Zm-6.82,0H71l-3.32-3.06H63.57Z"/><path id="_路徑_" data-name="&lt;路徑&gt;" class="cls-1" d="M105.17,34.18h-.67v0h.67Z"/><path id="_路徑_2" data-name="&lt;路徑&gt;" class="cls-1" d="M104.49,34.16v0l-1.92,0,0-.1Z"/><path id="_複合路徑_2" data-name="&lt;複合路徑&gt;" class="cls-1" d="M104.48,34.21,99.76,55.76c-1.95,8.89-5.54,13.4-10.67,13.4H45.75c.16-.58.35-1.2.54-1.87h2.22l3.67-3.37.63.68-2.91,2.69h5.44L59,63.92l.63.69-2.91,2.68h5.44l.75-.68.63.68H69l3.66-3.37.63.69-2.91,2.68h5.44l3.66-3.37.63.69-2.91,2.68H82.6l.75-.68.63.68h5.11l.35,0L96.2,61a33,33,0,0,0,1.74-5.68l.25-1.16-.63-.69,1-.9,1.37-6.28-.63-.68,1-.91,1.38-6.28-.63-.69,1-.9.57-2.58ZM95,63.42l-3.77,3.47A8.07,8.07,0,0,0,95,63.42Z"/><path id="_路徑_3" data-name="&lt;路徑&gt;" class="cls-1" d="M102.6,34.13l0,.1-1.73,0,0-.18Z"/><path id="_複合路徑_3" data-name="&lt;複合路徑&gt;" class="cls-1" d="M101,37.76l.63.69-2.16,2-1.38,6.28,1.17-1.07.63.68-2.15,2-.49,2.22a39.22,39.22,0,0,1-1.2,4.36l1.48-1.37.63.69-2.9,2.68c-1.86,4.19-4.38,6.53-7.57,7L84,67.29l-.63-.68,2.91-2.69H80.82l-.75.69-.63-.69H74l-.75.69-.63-.69H67.19l-3.67,3.37-.63-.68,2.91-2.69H60.37l-.75.69L59,63.92H53.55l-.75.68-.63-.68H47.24c.11-.38.21-.78.33-1.18.16-.58.33-1.18.49-1.78l1.19,1.1h4.07L50,59h-1.4c.68-2.52,1.4-5.25,2.14-8.11.5-2,1-4,1.55-6.1H79.35s.72-.18,2.31-2.65l1.6-7.3,5.46-.12c2.12,0,4.1-.1,5.88-.16l0,.19L98.11,38l.68-3.12-.49-.46,2.34-.07h.19l-1,4.5Zm-4,5.47.69-3.12L94.1,36.85,93.42,40Zm-1.15,5.22.69-3.12L93,42.07l-.68,3.11Zm-.47,2.1-3.57-3.28c-.27,1-.56,2-.89,2.92l3.65,3.36Q95,52.16,95.35,50.55Zm-1.48,4.91L90.15,52a18,18,0,0,1-1.33,2.51L92.6,58A17.43,17.43,0,0,0,93.87,55.46Zm-.8,3.35-3.61,3.32c2.3-.52,2.16-1.14,2.75-1.73A6.17,6.17,0,0,0,93.07,58.81Zm-1.56.77L87.68,56a9.37,9.37,0,0,1-2.1,1.8l3.8,3.51A7.37,7.37,0,0,0,91.51,59.57ZM87.34,62l-3.61-3.33a7.93,7.93,0,0,1-2.22.32H80l3.32,3.06h3.28A6.35,6.35,0,0,0,87.34,62Zm-10.82,0h4.06L77.25,59H73.2Zm-6.82,0h4.06L70.44,59H66.38Zm-6.82,0h4.07L63.62,59H59.57Zm-6.81,0h4.06L56.8,59H52.75Z"/><path id="_路徑_4" data-name="&lt;路徑&gt;" class="cls-1" d="M100.88,34.09l0,.18h-.21l-2.48,0L97.88,34l2.76,0Z"/><path id="_路徑_5" data-name="&lt;路徑&gt;" class="cls-1" d="M97.88,34l.28.26-3.51,0,.07-.35Z"/><path id="_路徑_6" data-name="&lt;路徑&gt;" class="cls-1" d="M94.73,34l-.07.35-5.92.09-5.38,0,.14-.62,5.24,0Z"/><path id="_路徑_7" data-name="&lt;路徑&gt;" class="cls-1" d="M89.46,62.13l3.61-3.32a6.17,6.17,0,0,1-.86,1.6C91.62,61,91.76,61.61,89.46,62.13Z"/><path id="_路徑_8" data-name="&lt;路徑&gt;" class="cls-1" d="M83.49,33.87l-.14.62-11.46.09-15.13,0a2.08,2.08,0,0,0,.1-.32,2.64,2.64,0,0,0,.07-.59l15,0Z"/><path id="_路徑_9" data-name="&lt;路徑&gt;" class="cls-1" d="M62.09,29.37a6.13,6.13,0,0,1,1.31,3.92H61.53a4.18,4.18,0,0,0-.9-2.75,6,6,0,0,0-4.42-2.05l.42-1.85h0A7.78,7.78,0,0,1,62.09,29.37Z"/><path id="_路徑_10" data-name="&lt;路徑&gt;" class="cls-1" d="M62.38,35.08h.75c-1.12,4-5.61,7.26-10.31,7.53.16-.63.31-1.27.47-1.91,3.54-.4,6.8-2.71,7.88-5.61Z"/><path id="_路徑_11" data-name="&lt;路徑&gt;" class="cls-1" d="M62.19,0c-.07.39-.3,1.46-.64,3.05l-.45,2h-.27c.2-.76.38-1.45.54-2.06C61.8,1.44,62.08.39,62.19,0Z"/><path id="_路徑_12" data-name="&lt;路徑&gt;" class="cls-1" d="M60.83,5.07h.27c-.4,1.79-.88,4-1.43,6.46-.5,2.2-1,4.63-1.64,7.22h-.75c.67-2.64,1.32-5.11,1.88-7.34C59.8,9,60.37,6.83,60.83,5.07Z"/><path id="_複合路徑_4" data-name="&lt;複合路徑&gt;" class="cls-1" d="M25.53,5.07H60.69c-.51,1.74-1.13,3.87-1.79,6.27s-1.29,4.74-2,7.41h-.14l.11.1c-.18.67-.35,1.35-.53,2.05L54,18.74H49.94l3.32,3.06H56.1c-.11.46-.23.91-.35,1.38,0,.16-.08.32-.12.48H32.72c-1.14.1-2,1.38-2.56,3.78l-1.32,6-1.91,0,.35-1.62-3.54-3.27-.68,3.12,2,1.82c-3.06.06-6,.11-8.6.18-1.89,0-3.67.08-5.3.14l3.74-17C16.57,9,20.16,5.07,25.53,5.07ZM46.44,21.8h4.07l-3.32-3.06H43.12Zm-6.81,0h4.06l-3.32-3.06H36.31Zm-6.82,0h4.07l-3.32-3.06H29.49Zm-2,.68L27,19a4,4,0,0,0-1.56,2.3l3.69,3.41A5.37,5.37,0,0,1,30.8,22.48ZM28.45,26.6l-3.56-3.28-.68,3.12,3.55,3.27L28.34,27C28.37,26.89,28.42,26.75,28.45,26.6Z"/><path id="_路徑_13" data-name="&lt;路徑&gt;" class="cls-1" d="M58,18.74l-.22,1-.63-.57c0-.13.07-.26.1-.39Z"/><path id="_路徑_14" data-name="&lt;路徑&gt;" class="cls-1" d="M57.18,19.13l.63.57c-.16.69-.32,1.39-.49,2.1l-.66-.61Z"/><path id="_路徑_15" data-name="&lt;路徑&gt;" class="cls-1" d="M57.32,21.8h-.81c.06-.21.1-.4.15-.61Z"/><path id="_路徑_16" data-name="&lt;路徑&gt;" class="cls-1" d="M56.51,21.8h.81l-.39,1.67,0,.19H56c0-.13.07-.25.09-.38Z"/><path id="_路徑_17" data-name="&lt;路徑&gt;" class="cls-1" d="M56.93,33.72a2.64,2.64,0,0,1-.07.59,2.08,2.08,0,0,1-.1.32h-2c.07-.31.14-.62.21-.91Z"/><path id="_路徑_18" data-name="&lt;路徑&gt;" class="cls-1" d="M56,23.66h.83c-.63,2.63-1.27,5.37-1.93,8.15l-.47,0-.45,0C54.72,29,55.4,26.3,56,23.66Z"/><path id="_路徑_19" data-name="&lt;路徑&gt;" class="cls-1" d="M54.49,33.72H55c-.07.3-.15.61-.21.91h-.49C54.35,34.33,54.43,34,54.49,33.72Z"/><path id="_路徑_20" data-name="&lt;路徑&gt;" class="cls-1" d="M54.95,31.81c-.11.49-.22,1-.35,1.45h-.91L54,31.81l.45,0Z"/><path id="_路徑_21" data-name="&lt;路徑&gt;" class="cls-1" d="M54.86,26.62c-.16.63-.33,1.28-.49,1.92h0a9.93,9.93,0,0,0-7.3,4.73H45C46.48,29.71,50.56,26.91,54.86,26.62Z"/><path id="_路徑_22" data-name="&lt;路徑&gt;" class="cls-1" d="M54.49,33.72c-.07.31-.14.61-.21.91h-.93c.07-.31.15-.63.23-.93Z"/><path id="_路徑_23" data-name="&lt;路徑&gt;" class="cls-1" d="M53.23,35.11h.93c-.13.57-.26,1.14-.4,1.71a3.05,3.05,0,0,1-.5,0l-.45,0Z"/><path id="_路徑_24" data-name="&lt;路徑&gt;" class="cls-1" d="M53.76,36.81c0,.11,0,.21-.07.33l-1.89,7.65h-.88c.61-2.58,1.24-5.22,1.87-7.86l0-.1.45,0A3.05,3.05,0,0,0,53.76,36.81Z"/><path id="_路徑_25" data-name="&lt;路徑&gt;" class="cls-1" d="M53.58,33.72c-.08.31-.16.63-.23.93h-.49c.07-.32.16-.63.23-.93Z"/><path id="_路徑_26" data-name="&lt;路徑&gt;" class="cls-1" d="M53.09,33.72c-.07.31-.16.62-.23.93h-2a2.18,2.18,0,0,1,.06-.33,2,2,0,0,1,.23-.59h2Z"/><path id="_路徑_27" data-name="&lt;路徑&gt;" class="cls-1" d="M50.92,44.79h.88c-.49,2-1,4-1.47,6-.71,2.9-1.42,5.66-2.08,8.21h-.63c.59-2.61,1.23-5.44,1.93-8.4Q50.21,47.76,50.92,44.79Z"/><path id="_路徑_28" data-name="&lt;路徑&gt;" class="cls-1" d="M51.4,40.72c-.15.62-.29,1.22-.44,1.83a7.73,7.73,0,0,1-5.21-2.71,6.15,6.15,0,0,1-1.23-4.76h1.89a4.31,4.31,0,0,0,.8,3.6A5.94,5.94,0,0,0,51.4,40.72Z"/><path id="_路徑_29" data-name="&lt;路徑&gt;" class="cls-1" d="M51.11,33.72a2,2,0,0,0-.23.59,2.18,2.18,0,0,0-.06.33l-17.56-.06-4.66,0,.16-.74,4.51,0Z"/><path id="_複合路徑_5" data-name="&lt;複合路徑&gt;" class="cls-1" d="M26.35,44.79H50.43c-.46,1.94-.88,3.85-1.31,5.71-.68,3-1.31,5.86-1.87,8.5H45.93L47,60c-.19.85-.35,1.67-.52,2.46s-.29,1.37-.42,2l-3,2.78h2.47l-.36,1.87H21.59a5.63,5.63,0,0,1-4.65-2,5.81,5.81,0,0,1-.6-.92,3,3,0,0,1-.23-.5h0a9.61,9.61,0,0,1-.63-2.85,4.69,4.69,0,0,1-1-1,6.73,6.73,0,0,1-1.3-3A5.32,5.32,0,0,1,9.37,57C7.6,54.83,7.36,51,8.63,45.2L11,34.56c1.68.06,3.51.11,5.47.15l5.93.12-.45,2,3.54,3.27L26.15,37l-2.36-2.16,2.81,0h0l1.91,0ZM42.44,62.06H46.5L43.17,59H39.12Zm-.74,5.23,3.66-3.37H39.92l-3.66,3.37Zm-6.08-5.23h4.06L36.36,59H32.3Zm-.74,5.23,3.66-3.37H33.11l-3.67,3.37ZM28.8,62.06h4.07L29.54,59H25.49Zm-.73,5.23,3.66-3.37H26.29l-3.66,3.37ZM22,62.06H26L22.73,59H18.67Zm2.45-17.27L25,42.25,21.45,39l-.68,3.12,2.92,2.69ZM21.28,67.27l3.63-3.35H19.47L18,65.32a4,4,0,0,0,.44.69A3.73,3.73,0,0,0,21.28,67.27Zm-2.17-5.21h.12L15.92,59h-.83a4.86,4.86,0,0,0,.83,1.78A3.85,3.85,0,0,0,19.11,62.06Zm-1.51,2.32.57-.51a5.47,5.47,0,0,1-.7-.12A6.33,6.33,0,0,0,17.59,64.38Z"/><path id="_路徑_30" data-name="&lt;路徑&gt;" class="cls-1" d="M47.61,59h.63c-.15.59-.29,1.17-.44,1.73l-.49-.45C47.41,59.85,47.5,59.43,47.61,59Z"/><path id="_路徑_31" data-name="&lt;路徑&gt;" class="cls-1" d="M47.32,60.27l.49.45-.49,1.95c-.11.42-.21.84-.32,1.25h-.25l-.32.3c.11-.54.24-1.1.37-1.67C47,61.81,47.14,61.06,47.32,60.27Z"/><path id="_路徑_32" data-name="&lt;路徑&gt;" class="cls-1" d="M46.74,63.92H47c-.32,1.2-.62,2.34-.9,3.37h-.35c.21-1,.43-2,.68-3.07Z"/><path id="_路徑_33" data-name="&lt;路徑&gt;" class="cls-1" d="M46.09,67.29c-.17.66-.34,1.29-.49,1.87h-.27c.12-.58.26-1.2.41-1.87Z"/><path id="_路徑_34" data-name="&lt;路徑&gt;" class="cls-1" d="M45.33,69.16h.27l-.5,1.9-.83,3.05c.07-.35.31-1.43.65-3.1C45,70.45,45.18,69.84,45.33,69.16Z"/><path id="_路徑_35" data-name="&lt;路徑&gt;" class="cls-1" d="M28.76,33.81l-.16.74-1.91,0,.16-.7Z"/><path id="_路徑_36" data-name="&lt;路徑&gt;" class="cls-1" d="M26.85,33.83l-.16.7h-.51l-.75-.69Z"/><path id="_路徑_37" data-name="&lt;路徑&gt;" class="cls-1" d="M25.43,33.84l.75.69-2.78,0-.69-.63Z"/><path id="_路徑_38" data-name="&lt;路徑&gt;" class="cls-1" d="M22.71,33.86l.69.63h-1l.14-.63Z"/><path id="_路徑_39" data-name="&lt;路徑&gt;" class="cls-1" d="M22.58,33.86l-.14.63-6,0L11,34.36l.07-.36,5.35-.07Z"/><path id="_路徑_40" data-name="&lt;路徑&gt;" class="cls-1" d="M11.08,34l-.07.36-6.49-.09L0,34.18H.3l4.22-.08Z"/></g><g id="_群組_5" data-name="&lt;群組&gt;"><g id="_群組_6" data-name="&lt;群組&gt;"><path id="_複合路徑_6" data-name="&lt;複合路徑&gt;" class="cls-1" d="M53.26,37.32a3.78,3.78,0,0,1-.51,0,2.72,2.72,0,0,1-.54-.12,2.48,2.48,0,0,1-1.83-2,3,3,0,0,1,0-.56,2.69,2.69,0,0,1,.07-.41A3.6,3.6,0,0,1,51.06,33a4.4,4.4,0,0,1,2.37-1.5,4.86,4.86,0,0,1,.56-.11,4.31,4.31,0,0,1,1,0,3.75,3.75,0,0,1,.55.13,2.48,2.48,0,0,1,1.74,1.64,2.4,2.4,0,0,1,.1.57v0a3.05,3.05,0,0,1-.08.69,3.31,3.31,0,0,1-.39.93,4.36,4.36,0,0,1-2.53,1.82,3.52,3.52,0,0,1-.58.12A3.32,3.32,0,0,1,53.26,37.32Zm1.22-5.07-.39,0a3.91,3.91,0,0,0-.44.08,3.46,3.46,0,0,0-1.86,1.18,1.73,1.73,0,0,0-.25.38,1.71,1.71,0,0,0-.2.5,1.75,1.75,0,0,0,0,.27,2,2,0,0,0,0,.36,1.58,1.58,0,0,0,1.19,1.23,1.88,1.88,0,0,0,.38.08,2.73,2.73,0,0,0,.82,0,2.77,2.77,0,0,0,.45-.09,3.41,3.41,0,0,0,2-1.41,2,2,0,0,0,.19-.38,1.7,1.7,0,0,0,.08-.25,2.12,2.12,0,0,0,.06-.49,1.47,1.47,0,0,0-.06-.34,1.58,1.58,0,0,0-1.12-1,3,3,0,0,0-.41-.1Z"/></g></g></g></g></g></g></svg>