<svg xmlns="http://www.w3.org/2000/svg" viewBox="0 0 111.27 88.48"><defs><style>.cls-1{fill:#231815;}</style></defs><title>工作區域 37</title><g id="圖層_3" data-name="圖層 3"><g id="_群組_" data-name="&lt;群組&gt;"><g id="_群組_2" data-name="&lt;群組&gt;"><rect id="_路徑_" data-name="&lt;路徑&gt;" class="cls-1" x="11.22" y="78.89" width="1.97" height="1.18" transform="translate(-67.4 68.13) rotate(-73.16)"/><path id="_複合路徑_" data-name="&lt;複合路徑&gt;" class="cls-1" d="M13.7,76.56l-1.13-.34,1.3-4.3,1.13.34Zm2-6.46-1.13-.34,1.3-4.31,1.13.34Z"/><rect id="_路徑_2" data-name="&lt;路徑&gt;" class="cls-1" x="16.35" y="61.94" width="1.97" height="1.18" transform="translate(-47.54 61) rotate(-73.16)"/></g><g id="_群組_3" data-name="&lt;群組&gt;"><rect id="_路徑_3" data-name="&lt;路徑&gt;" class="cls-1" x="7.1" y="82.67" width="1.97" height="1.48" transform="translate(-74.1 67.02) rotate(-73.19)"/><path id="_複合路徑_2" data-name="&lt;複合路徑&gt;" class="cls-1" d="M9.72,80.52,8.31,80.1l1.3-4.3,1.41.43Zm2-6.46-1.41-.43,1.3-4.31,1.41.43Z"/><rect id="_路徑_4" data-name="&lt;路徑&gt;" class="cls-1" x="12.23" y="65.72" width="1.97" height="1.48" transform="translate(-54.23 59.88) rotate(-73.19)"/></g><g id="_群組_4" data-name="&lt;群組&gt;"><rect id="_路徑_5" data-name="&lt;路徑&gt;" class="cls-1" x="3.7" y="84.5" width="1.97" height="1.67" transform="translate(-78.36 65.11) rotate(-73.17)"/><path id="_複合路徑_3" data-name="&lt;複合路徑&gt;" class="cls-1" d="M6.42,82.49,4.82,82l1.3-4.3,1.6.48Zm2-6.46-1.6-.48,1.3-4.31,1.6.48Z"/><rect id="_路徑_6" data-name="&lt;路徑&gt;" class="cls-1" x="8.82" y="67.55" width="1.97" height="1.67" transform="translate(-58.49 57.97) rotate(-73.17)"/></g><g id="_群組_5" data-name="&lt;群組&gt;"><rect id="_路徑_7" data-name="&lt;路徑&gt;" class="cls-1" x="0.24" y="86.27" width="1.97" height="1.97" transform="translate(-82.64 63.12) rotate(-73.14)"/><path id="_複合路徑_4" data-name="&lt;複合路徑&gt;" class="cls-1" d="M3.1,84.45l-1.88-.57,1.3-4.3,1.88.57Zm2-6.46-1.88-.57,1.3-4.31,1.88.57Z"/><rect id="_路徑_8" data-name="&lt;路徑&gt;" class="cls-1" x="5.37" y="69.32" width="1.97" height="1.97" transform="translate(-62.77 56) rotate(-73.14)"/></g><g id="_群組_6" data-name="&lt;群組&gt;"><rect id="_路徑_9" data-name="&lt;路徑&gt;" class="cls-1" x="15.7" y="73.25" width="1.97" height="0.98" transform="translate(-58.73 68.4) rotate(-73.2)"/><path id="_複合路徑_5" data-name="&lt;複合路徑&gt;" class="cls-1" d="M18.09,70.79l-.94-.28,1.3-4.3.94.28Zm2-6.46-.94-.28,1.3-4.31.94.28Z"/><rect id="_路徑_10" data-name="&lt;路徑&gt;" class="cls-1" x="20.83" y="56.3" width="1.97" height="0.98" transform="translate(-38.86 61.25) rotate(-73.19)"/></g><g id="_群組_7" data-name="&lt;群組&gt;"><g id="_群組_8" data-name="&lt;群組&gt;"><g id="_群組_9" data-name="&lt;群組&gt;"><path id="_路徑_11" data-name="&lt;路徑&gt;" class="cls-1" d="M40.53,31.58c-9.42,0-14,7.46-15,11.39L19.88,61.64l.94.28,5.61-18.68c1-3.69,5.27-10.68,14.1-10.68H80.47l.8-1Z"/><path id="_路徑_12" data-name="&lt;路徑&gt;" class="cls-1" d="M39.79,28.73c-10.4,0-15.6,8.35-16.9,12.77L16.12,64.23l1.18.35,6.77-22.74C25.28,37.73,30.12,30,39.79,30h42.8l1-1.23Z"/><path id="_路徑_13" data-name="&lt;路徑&gt;" class="cls-1" d="M39,25.87C27.67,25.87,21.8,35.12,20.29,40L12.35,66.83l1.41.42,7.93-26.8C23.1,35.92,28.53,27.35,39,27.35H84.71l1.2-1.48Z"/><path id="_路徑_14" data-name="&lt;路徑&gt;" class="cls-1" d="M38.3,23C25.94,23,19.42,33.16,17.69,38.54L8.59,69.42l1.65.49L19.34,39c1.59-4.95,7.6-14.3,19-14.3H86.83L88.23,23Z"/><path id="_路徑_15" data-name="&lt;路徑&gt;" class="cls-1" d="M90.34,20.17H37.56c-13.34,0-20.52,11-22.47,16.9L4.83,72l1.89.56L17,37.65c1.78-5.37,8.37-15.51,20.59-15.51H88.95l1-1.26S90.1,20.62,90.34,20.17Z"/></g></g><g id="_群組_10" data-name="&lt;群組&gt;"><g id="_群組_11" data-name="&lt;群組&gt;"><path id="_路徑_16" data-name="&lt;路徑&gt;" class="cls-1" d="M47.3,11.41A15.61,15.61,0,0,0,32.69,21.54l1.19-.29A14.55,14.55,0,0,1,47.3,12.39H95.37l.76-1Z"/><path id="_路徑_17" data-name="&lt;路徑&gt;" class="cls-1" d="M46.56,8.55c-10.4,0-15.6,8.35-16.89,12.74l-.43,1.25c.48-.16,1-.32,1.46-.46l.14-.41c1.21-4.11,6-11.89,15.72-11.89H97.48q.53-.62,1.09-1.23Z"/><path id="_路徑_18" data-name="&lt;路徑&gt;" class="cls-1" d="M45.82,5.7c-11.38,0-17.24,9.24-18.75,14.12L25.5,24.57l.32-.31a5.91,5.91,0,0,1,1.68-1l1-2.95c1.4-4.53,6.82-13.1,17.34-13.1H99.89q.76-.76,1.57-1.48Z"/><path id="_路徑_19" data-name="&lt;路徑&gt;" class="cls-1" d="M45.07,2.85C32.71,2.85,26.19,13,24.47,18.35L21.11,28.73l2.61-2.47,2.39-7.38c1.59-4.95,7.6-14.31,19-14.31h57.71c.76-.61,1.54-1.19,2.35-1.72Z"/><path id="_路徑_20" data-name="&lt;路徑&gt;" class="cls-1" d="M44.33,0C31,0,23.81,11,21.87,16.88l-5.08,16c1-1,2-1.95,3-2.91l4-12.52C25.52,12.12,32.11,2,44.33,2h62.26a20.44,20.44,0,0,1,4.68-2Z"/></g></g></g></g></g></svg>