<svg xmlns="http://www.w3.org/2000/svg" viewBox="0 0 101.75 59.71"><defs><style>.cls-1{fill:#231815;}</style></defs><title>工作區域 38</title><g id="圖層_3" data-name="圖層 3"><path class="cls-1" d="M85.18,30.88a2.35,2.35,0,0,1,.23-.23l.22-.21,0,0-.37-.35c-1.63-1.56-3.2-3-4.7-4.53l-.24-.23-.28.28-2.38,2.35-3,2.87c-1,1-2,1.89-3,2.83s-1.85,1.69-2.79,2.51l.21.23,4.78,5.19L76.65,39l3.09-2.79.1-.09c.94-1,1.88-1.9,2.85-2.83S84.34,31.65,85.18,30.88Z"/><path class="cls-1" d="M98.23,32.47l3.52-16.87-.25-.14-.35-.23c-8-5.32-15.87-9.57-28-15.23L70.88,0H13.1L0,59.71H17.39l2.42-12.83.17-.15-.09-.09.26-.27H69l5.51,13.35h18.8L88,46.33C92.87,45.92,96.29,41.27,98.23,32.47ZM86.06,54.67c-1,1-2,1.89-3,2.83l-.16.14H81.4c.3-.3.6-.6.9-.9.88-.83,1.73-1.68,2.62-2.5l.23-.22a.54.54,0,0,1,.11-.1l-2.09-2C82.08,50.88,81,49.86,80,48.81l-.15.14L77.3,51.44l-2.82,2.69L74,53.06l2.55-2.38,2.62-2.35-.09-.09.3-.3c1-1,2-2,2.94-2.92s1.85-1.8,2.79-2.65l.19-.18c-1.82-1.73-3.54-3.34-5.18-5L80,37.07,77.35,39.7l-3,2.87c-1,1-2,1.89-3,2.84l-.31.28-.43-1h0c.93-.89,1.84-1.79,2.78-2.65l.19-.18c-1.86-1.78-3.62-3.43-5.3-5.12h0L65.6,39.35l-3,2.87c-.72.7-1.47,1.38-2.22,2.07H58.85c.93-.89,1.83-1.78,2.77-2.65l.19-.18C59.95,39.7,58.18,38,56.5,36.36L53.83,39l-3,2.87c-.85.82-1.73,1.62-2.61,2.43h-1.5l.36-.36c.79-.75,1.58-1.53,2.38-2.28l-5.11-5.3-2.13,2.1-3,2.87c-1,1-2,1.89-3,2.84l-.14.13H34.57l.91-.88c.76-.73,1.52-1.49,2.29-2.2A1.45,1.45,0,0,1,38,41c-1.84-1.78-3.6-3.42-5.28-5.08l-.12-.13-2.67,2.63-3,2.87c-1,1-2,1.89-3,2.84l-.14.13H22.22l.9-.88c.93-.89,1.85-1.8,2.78-2.65l.19-.18c-1.86-1.78-3.62-3.43-5.3-5.11l-2.67,2.62-3,2.87c-1,1-2,1.9-3,2.84s-1.74,1.58-2.63,2.36c1.57,1.72,3,3.49,4.46,5.16l.47.52,2.9-2.68L17,50.89l-1.9,1.81c-1,1-2,1.89-3,2.84-.77.71-1.56,1.41-2.35,2.1H8.42c1-1,1.91-1.92,2.89-2.86S13,53.1,13.93,52.28l.23-.22.11-.1-2.18-2.09c-1.07-1-2.12-2-3.12-3L8.82,47,6.3,49.48,3.84,51.83,4.25,50l1.34-1.25,2.62-2.36-.08-.09L8.42,46c1-1,2-2,3-2.93s1.84-1.79,2.78-2.65l.19-.18c-1.86-1.78-3.62-3.43-5.31-5.11L7.09,37l.37-1.66L8.74,34.2,8.92,34c.91-.93,1.83-1.86,2.77-2.76s1.65-1.6,2.49-2.37c.07-.08.14-.14.22-.22h0a2.23,2.23,0,0,1,.23-.22,0,0,0,0,1,0,0l-.2-.2c-1.56-1.5-3.05-2.9-4.48-4.32l.2-.92c1.6,1.8,3.13,3.63,4.58,5.34l3-2.79,2.48-2.23-.07-.08.29-.3c1-1,2-2,3-2.92l.06-.06L23,21.82,21.61,23l.8.91-.21.81-1-1-.07-.07-.29.28-2.37,2.35-3,2.87c-1,1-2,1.89-3,2.83s-1.84,1.68-2.79,2.51l.21.23L14.6,40l2.81-2.61,3.09-2.79.2-.18c.91-.93,1.83-1.85,2.77-2.75s1.65-1.6,2.49-2.37c.07-.08.14-.14.22-.22l.23-.22,0,0-.16-.15h.2l.05.06.07-.06,1.54,0-.91.87c-1,1-2,1.89-3,2.83s-1.85,1.68-2.79,2.51l5,5.42,2.81-2.62,3.09-2.78c1-1,2-2,3-2.92s2-1.9,3-2.83l-.32-.31,2.17,0-1.06,1c-1,1-2,1.9-3,2.84s-1.85,1.67-2.79,2.5h0l5.08,5.51.26-.24,3-2.84,3.09-2.78.32-.29c.7-.7,1.4-1.4,2.12-2.09.95-.91,1.89-1.84,2.86-2.74l.14-.13,0,0L49.43,29h.63l.3.32.34-.31,1.54,0-1.45,1.39c-1,1-2,1.89-3,2.83-.73.68-1.48,1.35-2.22,2l-.3.27-.27.23.63.68,4.35,4.73.18.19.29-.27,0,0,0,0,5.62-5.13.63-.57L62,30.53l.1-.09-.37-.36-.92-.88h.8l.49.53.06-.06.49-.46H64.2l-1.29,1.23c-1,1-2,1.89-3,2.84S58,35,57.09,35.79l.21.23,4.78,5.19,2.81-2.61L68,35.81l.2-.18c.91-.93,1.83-1.85,2.77-2.75s1.64-1.59,2.48-2.37l.23-.22.23-.22,0,0-.34-.32-1.31-1.25.32-.18L74,30l3-2.79L79.45,25l-.07-.07.29-.3c1-1,2-2,3-2.93l.46-.44c.27.24.54.47.81.68l-.56.52c-.82.75-1.65,1.5-2.49,2.23,1.72,1.92,3.35,3.87,4.9,5.69l3-2.78,2.48-2.23-.08-.08.13-.13.72,0c.25,0,.48,0,.71,0,1.38,1.55,2.71,3.1,4,4.61l-.06.31c-1.56-1.49-3.06-2.9-4.48-4.33l0,0-.29.28L89.44,28.3l-3,2.88c-1,1-2,1.89-3,2.83s-1.85,1.67-2.79,2.5h0l5,5.42,2.81-2.62,3.09-2.78h0l.09-.09c.94-.95,1.89-1.9,2.85-2.83l1.79-1.7,0,.13c-.13.61-.28,1.19-.42,1.76l-.62.57c-.91.85-1.84,1.67-2.78,2.5l.2.23,1.49,1.62c-.1.22-.21.44-.31.65-.62-.6-1.25-1.2-1.85-1.79l-.12-.13-2.66,2.63-3,2.87c-1,1-2,1.89-3,2.84-.86.79-1.73,1.58-2.62,2.35,1.56,1.73,3,3.5,4.47,5.18l.46.51,2.48-2.32.42,1Zm-74.44-35c.93-.89,1.85-1.79,2.78-2.65l.19-.18-2.53-2.42.16-.71,2.64,2.88L17.67,14l3.09-2.79.1-.09c.56-.57,1.11-1.14,1.68-1.69h0c.38-.38.76-.76,1.16-1.14.88-.84,1.73-1.68,2.62-2.51l.23-.22.11-.1-2.14-2c-.47-.44-.91-.88-1.36-1.32H24c.76.88,1.51,1.76,2.23,2.62l.58.63,3-2.76.54-.49h1.42L30.46,3.34l-3,2.87c-1,1-2,1.89-3,2.83-.39.36-.78.72-1.19,1.07s-1.06,1-1.6,1.42l4.68,5.08h-.59c-1.58-1.5-3.1-2.95-4.55-4.38L21,12.11l-2.67,2.62-3,2.87c-1,1-2,1.89-3,2.84-.66.61-1.32,1.2-2,1.79l.36-1.64ZM13.89,6.07l.68-.65a1.49,1.49,0,0,1,.23-.22h0l.11-.1-.67-.64.06-.27.26.3L15,5l3-2.77.14-.13h1.46L18.7,3,17.38,4.24,15.7,5.84c-.72.7-1.47,1.39-2.21,2.07ZM39,5.25l.13.14,3.62-3.3h1l-1.62,1.6-3,2.87c-1,1-2,1.89-3,2.84s-1.85,1.67-2.79,2.5h0l.2.22,4.14,4.5h-.64c-1.49-1.42-2.93-2.78-4.29-4.15l-2.66,2.63-1,.94-.61.58H27l1.42-1.33,1-.95,3.09-2.78h0l.09-.09c.94-.95,1.89-1.9,2.86-2.83s2-1.9,3-2.83c-1.35-1.29-2.63-2.51-3.88-3.72h1.58Zm11.71.65,2.58-2.41,1.55-1.4h1.34L54,4.24,51,7.11c-1,1-2,1.89-3,2.83-.69.65-1.4,1.29-2.13,1.92l-.3.27-.31.27-.05.05L49,16.62H48.1L44.52,12.9l-2,2-1.78,1.7H39.51l4.57-4.16,0,0,.29-.3.93-.94c.67-.67,1.34-1.34,2-2,1-1,2-1.93,3-2.87l-.6-.62c-1.29-1.25-2.53-2.43-3.74-3.61h1.29Zm11.75.34,3-2.77L67,2.09h1.34L66.17,4.22l-3,2.87c-1,1-2,1.89-3,2.83s-1.85,1.69-2.79,2.51l.21.23,3.64,4h-.7c-1.29-1.23-2.55-2.43-3.74-3.63h0l-2.66,2.63-1,1H51.92l4.43-4L57,12l5.41-4.93L62,6.71C60.31,5.1,58.73,3.6,57.2,2.09h1.49ZM99.42,16.67l0,.18a8,8,0,0,1-5.16,5.87c-3.42,1.11-7.38-.45-11.14-4.39a20.21,20.21,0,0,1-5-8.7,38.83,38.83,0,0,0-2.42-5.86ZM23.86,26.55l2.06-7.87h47.2a1.14,1.14,0,0,1,1,.49,3,3,0,0,1,.41,1.68c0,2.65-2,6.33-5.3,6.33C57.71,27.18,30.19,26.67,23.86,26.55Zm52-8.53,0,0a3.18,3.18,0,0,0-.73-.72l1.79-1.67,1-.9c.15.29.32.59.49.88l-.78.77ZM73.79,6.09l.46.51.34-.31q.24.54.45,1.06l-.12.11c-1,1-2,1.89-3,2.83S70,12,69.11,12.79l3.52,3.82h-.75c-1.11-1.06-2.21-2.11-3.25-3.15a.54.54,0,0,1-.11-.1L65.84,16l-.66.63H63.65l1.49-1.38,3.09-2.79.1-.09c.94-1,1.88-1.9,2.85-2.83S72.9,7.85,73.79,7A2.46,2.46,0,0,1,74,6.8l.11-.1L72,4.62c-.9-.84-1.76-1.68-2.61-2.53h1C71.54,3.44,72.7,4.8,73.79,6.09Z"/></g></svg>