<svg xmlns="http://www.w3.org/2000/svg" viewBox="0 0 161.81 16.73"><defs><style>.cls-1{fill:#fff;}</style></defs><title>工作區域 41</title><g id="圖層_3" data-name="圖層 3"><path class="cls-1" d="M159.32,9.25,157,4.63,159.32,0,154.7,2.34,150.07,0l2.32,4.63-2.32,4.62,4.63-2.31Zm-5.78-4.62a1.16,1.16,0,1,1,1.16,1.15,1.16,1.16,0,0,1-1.16-1.15"/><polygon class="cls-1" points="43.7 2.96 68.26 2.96 68.93 0.07 39.84 0.07 37.92 7.4 35.35 7.4 34.62 10.19 37.18 10.19 35.47 16.73 64.56 16.73 65.46 13.03 40.9 13.03 41.64 10.19 66.33 10.19 67.02 7.4 42.35 7.4 43.7 2.96"/><polygon class="cls-1" points="120.79 2.87 132.88 2.87 133.59 0.07 104.99 0.07 104.28 2.87 116.23 2.87 113.56 13.03 101.61 13.03 100.63 16.69 129.23 16.69 130.21 13.03 118.12 13.03 120.79 2.87"/><polygon class="cls-1" points="137.1 13.03 140.35 0.07 136.35 0.07 131.97 16.73 160.69 16.73 161.81 13.03 137.1 13.03"/><path class="cls-1" d="M32.46,0,21,1.57H17.52L6.84,0C5.21,0,4,1.36,3.32,4.07L0,16.73H3.59L6.66,5q.69-1,1.2-1.14L16.7,5.1,13.52,16.73H17L20.21,5.1l9.38-1.24c.22.09.45.47.66,1.14L27.18,16.73h3.51L34,4.07Q35.08,0,32.46,0"/><path class="cls-1" d="M99.74,0,88.27,1.57H84.8L74.12,0c-1.63,0-2.81,1.36-3.52,4.07L67.28,16.73h3.59L74,5c.45-.69.85-1.07,1.19-1.14L84,5.1,80.8,16.73h3.52L87.5,5.1l9.37-1.24q.34.14.66,1.14L94.46,16.73H98L101.3,4.07Q102.37,0,99.74,0"/></g></svg>