<svg xmlns="http://www.w3.org/2000/svg" viewBox="0 0 676.77 121.42"><defs><style>.cls-1{fill:#231815;}</style></defs><title>工作區域 88</title><g id="圖層_3" data-name="圖層 3"><g id="_群組_" data-name="&lt;群組&gt;"><g id="_群組_2" data-name="&lt;群組&gt;"><g id="_群組_3" data-name="&lt;群組&gt;"><g id="_群組_4" data-name="&lt;群組&gt;"><path id="_複合路徑_" data-name="&lt;複合路徑&gt;" class="cls-1" d="M306.39,22.48c2.09,2.59,2.42,6.92,1,13.24l-2,9-2.48-.1L304,40l-2.82,2.59-.41,1.87h-.35c-1.13,0-2.4-.07-3.82-.12l-3.23-3-.62,2.85c-2.38-.08-5-.15-7.91-.21l-6.76-.15L280.9,31H243.74a.43.43,0,0,1,0-.12c.36-1.59.71-3.14,1-4.66l2.55,2.35h5.31l-4.35-4h-3.14c.73-3.35,1.4-6.51,2-9.36.68-3.27,1.24-6.17,1.71-8.53h41.47a7.44,7.44,0,0,1,6.15,2.56,8.68,8.68,0,0,1,1.63,3.93,7.07,7.07,0,0,1,5,2.51A9.6,9.6,0,0,1,305,21.2,5.73,5.73,0,0,1,306.39,22.48Zm-2.5,7.75,1.92-1.77a8.3,8.3,0,0,0-.93-3.83,36.9,36.9,0,0,1-.69,4.25Zm1.89-.09-2.35,2.18-1.81,8.21,2.82-2.6.6-2.73A32.53,32.53,0,0,0,305.78,30.14ZM298.24,17.9l4.32,4a7.71,7.71,0,0,0-1.3-4.73,4.43,4.43,0,0,0-2.92-1.55A20.36,20.36,0,0,1,298.24,17.9ZM302.38,25l-4.55-4.18c-.1.51-.19,1-.31,1.58L297,25l4.64,4.27.2-.87C302.06,27.15,302.24,26.06,302.38,25Zm-2.27,11L301,32l-4.64-4.29-.89,4.08Zm-1.5,6.84.89-4.08-4.64-4.27L294,38.61ZM278.67,24.52l2.86,2.63a2.16,2.16,0,0,0-.36-1.25,4.78,4.78,0,0,0-1.89-1.38Zm-4.58,4h5.32l-4.34-4h-5.33Zm-8.91,0h5.31l-4.35-4h-5.3Zm-8.92,0h5.32l-4.34-4h-5.33Z"/><path id="_路徑_" data-name="&lt;路徑&gt;" class="cls-1" d="M306.33,44.72h-.88v0h.49Z"/><path id="_路徑_2" data-name="&lt;路徑&gt;" class="cls-1" d="M305.45,44.69v0l-2.51.05,0-.14Z"/><path id="_複合路徑_2" data-name="&lt;複合路徑&gt;" class="cls-1" d="M305.44,44.75,299.25,73c-2.55,11.63-7.24,17.52-14,17.52H228.6c.21-.76.46-1.57.71-2.44h2.91L237,83.62l.82.89L234,88h7.12l4.78-4.41.83.91L242.94,88h7.12l1-.89.81.89H259l4.78-4.41.83.91L260.77,88h7.12l4.78-4.41.83.91L269.7,88h7.11l1-.89.82.89h6.68l.47,0,8.85-8.16a44.23,44.23,0,0,0,2.27-7.43l.32-1.51-.83-.91,1.3-1.18,1.79-8.21-.83-.89,1.3-1.2,1.8-8.21-.83-.91,1.28-1.17.75-3.38ZM293,83,288.1,87.5A10.47,10.47,0,0,0,293,83Z"/><path id="_路徑_3" data-name="&lt;路徑&gt;" class="cls-1" d="M303,44.64l0,.14c-.67,0-1.42,0-2.26,0l.05-.24C301.57,44.62,302.32,44.63,303,44.64Z"/><path id="_複合路徑_3" data-name="&lt;複合路徑&gt;" class="cls-1" d="M300.9,49.4l.83.91-2.82,2.6-1.8,8.21,1.52-1.4.83.89-2.8,2.58L296,66.1a49.85,49.85,0,0,1-1.58,5.7l1.94-1.8.83.91-3.79,3.5c-2.43,5.48-5.74,8.54-9.9,9.1L278.61,88l-.82-.89,3.81-3.52h-7.12l-1,.91-.83-.91h-7.11l-1,.91-.83-.91h-7.1L251.85,88l-.81-.89,3.8-3.52h-7.11l-1,.91-.83-.91h-7.11l-1,.89-.82-.89h-6.45c.14-.5.28-1,.42-1.55.21-.75.43-1.53.64-2.33l1.56,1.44h5.32l-4.34-4h-1.83c.89-3.3,1.83-6.87,2.79-10.61.66-2.58,1.37-5.24,2-8h35.41s.94-.23,3-3.46l2.1-9.56,7.14-.16c2.77,0,5.36-.13,7.69-.21l0,.25,4.64,4.27.89-4.08-.65-.59c1.11,0,2.14-.08,3.06-.1h.25l-1.3,5.88Zm-5.29,7.15.9-4.07-4.65-4.27L291,52.27Zm-1.51,6.84.91-4.08L290.36,55l-.89,4.07Zm-.61,2.75-4.67-4.3c-.35,1.35-.73,2.64-1.16,3.82l4.77,4.39C292.82,68.84,293.18,67.54,293.49,66.14Zm-1.94,6.41-4.87-4.47a23.37,23.37,0,0,1-1.74,3.28l4.95,4.56A22,22,0,0,0,291.55,72.55Zm-1.05,4.39-4.72,4.34c3-.68,2.83-1.49,3.6-2.26A8,8,0,0,0,290.5,76.94Zm-2,1-5-4.62a12.21,12.21,0,0,1-2.74,2.36l5,4.59A9.85,9.85,0,0,0,288.47,77.94ZM283,81.12l-4.72-4.35a10.71,10.71,0,0,1-2.91.41h-2l4.34,4h4.3A7.57,7.57,0,0,0,283,81.12Zm-14.16.06h5.31l-4.34-4h-5.31Zm-8.92,0h5.31l-4.33-4h-5.32Zm-8.92,0h5.32l-4.34-4h-5.31Zm-8.91,0h5.31l-4.34-4h-5.31Z"/><path id="_路徑_4" data-name="&lt;路徑&gt;" class="cls-1" d="M300.73,44.59l-.05.24h-.27l-3.24.05-.37-.35,3.61.06Z"/><path id="_路徑_5" data-name="&lt;路徑&gt;" class="cls-1" d="M296.8,44.53l.37.35-4.59.06.1-.46C294.17,44.51,295.53,44.52,296.8,44.53Z"/><path id="_路徑_6" data-name="&lt;路徑&gt;" class="cls-1" d="M292.68,44.48l-.1.46-7.75.12-7,.06.18-.81,6.86.06C287.67,44.42,290.31,44.45,292.68,44.48Z"/><path id="_路徑_7" data-name="&lt;路徑&gt;" class="cls-1" d="M285.78,81.28l4.72-4.34A8,8,0,0,1,289.38,79C288.61,79.79,288.8,80.6,285.78,81.28Z"/><path id="_路徑_8" data-name="&lt;路徑&gt;" class="cls-1" d="M278,44.31l-.18.81-15,.12c-6.36,0-13,0-19.79.06a3.24,3.24,0,0,0,.13-.41,3.54,3.54,0,0,0,.08-.77l19.58.06C268.15,44.23,273.26,44.28,278,44.31Z"/><path id="_路徑_9" data-name="&lt;路徑&gt;" class="cls-1" d="M250,38.42a8,8,0,0,1,1.7,5.13l-1.33,0h-1.11a5.44,5.44,0,0,0-1.18-3.6,7.84,7.84,0,0,0-5.78-2.68l.54-2.42h0A10.16,10.16,0,0,1,250,38.42Z"/><path id="_路徑_10" data-name="&lt;路徑&gt;" class="cls-1" d="M250.36,45.89h1c-1.46,5.25-7.33,9.49-13.48,9.85.2-.83.4-1.66.61-2.5,4.62-.53,8.89-3.56,10.31-7.34Z"/><path id="_路徑_11" data-name="&lt;路徑&gt;" class="cls-1" d="M250.11,0c-.1.51-.39,1.9-.84,4-.17.78-.37,1.66-.59,2.64h-.35c.25-1,.5-1.89.7-2.7C249.6,1.88,250,.51,250.11,0Z"/><path id="_路徑_12" data-name="&lt;路徑&gt;" class="cls-1" d="M248.33,6.63h.35l-1.87,8.44c-.66,2.88-1.36,6.06-2.14,9.45h-1c.88-3.46,1.72-6.69,2.46-9.61C247,11.74,247.73,8.93,248.33,6.63Z"/><path id="_複合路徑_4" data-name="&lt;複合路徑&gt;" class="cls-1" d="M202.16,6.63h46c-.67,2.28-1.47,5.06-2.34,8.2-.81,2.94-1.68,6.2-2.61,9.69H243l.14.13c-.23.88-.46,1.77-.69,2.69l-3.07-2.82h-5.31l4.35,4h3.71c-.15.6-.31,1.2-.46,1.81-.05.21-.11.41-.16.62h-30c-1.48.13-2.66,1.81-3.34,4.94l-1.72,7.83-2.5,0,.46-2.12-4.64-4.29-.89,4.08,2.58,2.38c-4,.07-7.79.15-11.25.23-2.48,0-4.8.11-6.94.18l4.9-22.29C190.43,11.77,195.13,6.63,202.16,6.63Zm27.35,21.89h5.32l-4.35-4h-5.32Zm-8.91,0h5.31l-4.35-4h-5.31Zm-8.92,0H217l-4.35-4h-5.32Zm-2.63.89-5-4.61a5.14,5.14,0,0,0-2,3l4.83,4.46A7.12,7.12,0,0,1,209.05,29.41ZM206,34.79l-4.66-4.29-.9,4.07,4.64,4.28.77-3.48C205.87,35.17,205.93,35,206,34.79Z"/><path id="_路徑_13" data-name="&lt;路徑&gt;" class="cls-1" d="M244.67,24.52q-.15.61-.3,1.26l-.82-.75c0-.17.09-.34.14-.51Z"/><path id="_路徑_14" data-name="&lt;路徑&gt;" class="cls-1" d="M243.55,25l.82.75c-.21.9-.41,1.81-.63,2.74l-.87-.79Z"/><path id="_路徑_15" data-name="&lt;路徑&gt;" class="cls-1" d="M243.74,28.52h-1.06c.07-.27.13-.52.19-.79Z"/><path id="_路徑_16" data-name="&lt;路徑&gt;" class="cls-1" d="M242.68,28.52h1.06c-.17.72-.34,1.45-.52,2.19,0,.08,0,.15-.06.24h-1.08c0-.17.08-.33.12-.5Z"/><path id="_路徑_17" data-name="&lt;路徑&gt;" class="cls-1" d="M243.22,44.12a3.54,3.54,0,0,1-.08.77,3.24,3.24,0,0,1-.13.41h-2.62c.09-.4.19-.8.28-1.19Z"/><path id="_路徑_18" data-name="&lt;路徑&gt;" class="cls-1" d="M242.08,31h1.08c-.81,3.44-1.66,7-2.52,10.67a4.17,4.17,0,0,0-.61,0,3.9,3.9,0,0,0-.59,0C240.34,38,241.22,34.4,242.08,31Z"/><path id="_路徑_19" data-name="&lt;路徑&gt;" class="cls-1" d="M240,44.12h.63c-.09.39-.19.79-.28,1.19h-.63C239.86,44.91,240,44.52,240,44.12Z"/><path id="_路徑_20" data-name="&lt;路徑&gt;" class="cls-1" d="M240.64,41.62l-.45,1.89H239c.15-.63.31-1.26.45-1.88a3.9,3.9,0,0,1,.59,0A4.17,4.17,0,0,1,240.64,41.62Z"/><path id="_路徑_21" data-name="&lt;路徑&gt;" class="cls-1" d="M240.53,34.82c-.21.83-.43,1.67-.64,2.51h0a13,13,0,0,0-9.54,6.19h-2.69C229.56,38.87,234.9,35.21,240.53,34.82Z"/><path id="_路徑_22" data-name="&lt;路徑&gt;" class="cls-1" d="M240,44.12c-.09.4-.18.79-.28,1.19l-1.22,0c.1-.41.19-.82.3-1.22Z"/><path id="_路徑_23" data-name="&lt;路徑&gt;" class="cls-1" d="M238.39,45.94c.4,0,.82,0,1.22,0-.17.75-.34,1.49-.52,2.24a4.89,4.89,0,0,1-.66.05,5.47,5.47,0,0,1-.59,0C238,47.43,238.21,46.68,238.39,45.94Z"/><path id="_路徑_24" data-name="&lt;路徑&gt;" class="cls-1" d="M239.09,48.16c0,.14-.06.28-.1.43-.83,3.35-1.66,6.71-2.48,10h-1.14c.79-3.38,1.62-6.83,2.44-10.29l0-.13a5.47,5.47,0,0,0,.59,0A4.89,4.89,0,0,0,239.09,48.16Z"/><path id="_路徑_25" data-name="&lt;路徑&gt;" class="cls-1" d="M238.84,44.11c-.11.4-.2.81-.3,1.22h-.64c.1-.42.21-.82.31-1.22Z"/><path id="_路徑_26" data-name="&lt;路徑&gt;" class="cls-1" d="M238.21,44.11c-.1.4-.21.8-.31,1.22h-.36l-2.3,0a3.43,3.43,0,0,1,.08-.42,2.68,2.68,0,0,1,.3-.77h2.59Z"/><path id="_路徑_27" data-name="&lt;路徑&gt;" class="cls-1" d="M235.37,58.59h1.14c-.64,2.68-1.3,5.3-1.93,7.85-.92,3.8-1.85,7.41-2.72,10.74H231c.77-3.42,1.61-7.12,2.53-11C234.15,63.72,234.74,61.18,235.37,58.59Z"/><path id="_路徑_28" data-name="&lt;路徑&gt;" class="cls-1" d="M236,53.27c-.2.81-.38,1.6-.57,2.39a10.07,10.07,0,0,1-6.83-3.54A8.07,8.07,0,0,1,227,45.9h2.48a5.64,5.64,0,0,0,1.05,4.71A7.77,7.77,0,0,0,236,53.27Z"/><path id="_路徑_29" data-name="&lt;路徑&gt;" class="cls-1" d="M235.62,44.12a2.68,2.68,0,0,0-.3.77,3.43,3.43,0,0,0-.08.42l-23-.07-6.1-.05.21-1,5.89,0C219.74,44.16,227.66,44.13,235.62,44.12Z"/><path id="_複合路徑_5" data-name="&lt;複合路徑&gt;" class="cls-1" d="M203.23,58.59h31.5c-.6,2.54-1.15,5-1.71,7.47-.89,3.92-1.71,7.67-2.44,11.12h-1.74l1.46,1.34c-.24,1.11-.46,2.19-.68,3.22s-.38,1.8-.55,2.65l-4,3.64h3.24l-.48,2.44H197a7.37,7.37,0,0,1-6.08-2.59,7.07,7.07,0,0,1-.78-1.2,3.27,3.27,0,0,1-.31-.66v0a12.74,12.74,0,0,1-.83-3.72A6.26,6.26,0,0,1,187.68,81,8.74,8.74,0,0,1,186,77.12a6.94,6.94,0,0,1-5-2.53c-2.31-2.87-2.63-7.93-1-15.46l3.05-13.91c2.2.07,4.59.14,7.16.19l7.76.16-.59,2.67,4.64,4.28.9-4.08-3.08-2.83c1.2,0,2.42,0,3.67.06h0c.83,0,1.66,0,2.5,0Zm21,22.59h5.31l-4.34-4h-5.31Zm-1,6.85,4.78-4.41H221L216.19,88Zm-8-6.85h5.31l-4.33-4H211Zm-1,6.85,4.78-4.41h-7.1L207.27,88Zm-8-6.85h5.32l-4.34-4H202.1Zm-1,6.85,4.78-4.41h-7.11L198.36,88Zm-8-6.85h5.31l-4.35-4h-5.3Zm3.21-22.59.73-3.32L196.81,51l-.89,4.08,3.82,3.51ZM196.59,88l4.75-4.39h-7.12l-2,1.83a5.19,5.19,0,0,0,.57.91A4.88,4.88,0,0,0,196.59,88Zm-2.84-6.83h.16l-4.34-4h-1.08a6.37,6.37,0,0,0,1.08,2.33A5.06,5.06,0,0,0,193.75,81.18Zm-2,3,.75-.67a6.53,6.53,0,0,1-.92-.16C191.65,83.67,191.7,84,191.77,84.22Z"/><path id="_路徑_30" data-name="&lt;路徑&gt;" class="cls-1" d="M231,77.18h.83c-.19.77-.38,1.53-.57,2.26l-.64-.59C230.78,78.3,230.9,77.74,231,77.18Z"/><path id="_路徑_31" data-name="&lt;路徑&gt;" class="cls-1" d="M230.65,78.85l.64.59c-.22.88-.44,1.72-.65,2.55-.14.55-.28,1.1-.41,1.63h-.33l-.42.39c.15-.7.32-1.44.49-2.18C230.19,80.87,230.42,79.88,230.65,78.85Z"/><path id="_路徑_32" data-name="&lt;路徑&gt;" class="cls-1" d="M229.9,83.62h.33c-.42,1.58-.81,3.07-1.17,4.41h-.47c.27-1.25.56-2.59.89-4Z"/><path id="_路徑_33" data-name="&lt;路徑&gt;" class="cls-1" d="M229.06,88c-.22.87-.44,1.68-.65,2.44h-.35c.15-.76.34-1.57.53-2.44Z"/><path id="_路徑_34" data-name="&lt;路徑&gt;" class="cls-1" d="M228.06,90.47h.35c-.25.92-.46,1.75-.66,2.49-.59,2.15-1,3.55-1.09,4,.1-.45.41-1.87.86-4Q227.76,91.81,228.06,90.47Z"/><path id="_路徑_35" data-name="&lt;路徑&gt;" class="cls-1" d="M206.38,44.23l-.21,1-2.5,0,.21-.92Z"/><path id="_路徑_36" data-name="&lt;路徑&gt;" class="cls-1" d="M203.88,44.25l-.21.92H203l-1-.9Z"/><path id="_路徑_37" data-name="&lt;路徑&gt;" class="cls-1" d="M202,44.27l1,.9c-1.23,0-2.44,0-3.64,0l-.9-.83Z"/><path id="_路徑_38" data-name="&lt;路徑&gt;" class="cls-1" d="M198.46,44.3l.9.83h-1.25l.18-.82Z"/><path id="_路徑_39" data-name="&lt;路徑&gt;" class="cls-1" d="M198.29,44.3l-.18.82-7.86-.06L183.16,45l.09-.48c2.15,0,4.49-.06,7-.1Z"/><path id="_路徑_40" data-name="&lt;路徑&gt;" class="cls-1" d="M183.25,44.47l-.09.48-8.5-.12c-3.76-.08-5.91-.11-5.91-.11l.39,0c.79,0,2.7,0,5.52-.11C177,44.57,179.87,44.52,183.25,44.47Z"/></g><g id="_群組_5" data-name="&lt;群組&gt;"><g id="_群組_6" data-name="&lt;群組&gt;"><path id="_複合路徑_6" data-name="&lt;複合路徑&gt;" class="cls-1" d="M238.43,48.82a4.68,4.68,0,0,1-.67,0,3.75,3.75,0,0,1-.71-.15,3.25,3.25,0,0,1-2.4-2.61,4.42,4.42,0,0,1,0-.73,3.22,3.22,0,0,1,.1-.54,3.18,3.18,0,0,1,.37-.94,3.38,3.38,0,0,1,.45-.69,5.78,5.78,0,0,1,3.1-2,6.1,6.1,0,0,1,.72-.14,6,6,0,0,1,1.34,0,5.48,5.48,0,0,1,.72.17,3.26,3.26,0,0,1,2.27,2.15,3.1,3.1,0,0,1,.13.75v0a3.82,3.82,0,0,1-.1.9,2.76,2.76,0,0,1-.17.53,3.55,3.55,0,0,1-.34.68,5.72,5.72,0,0,1-3.31,2.38,3.93,3.93,0,0,1-.76.15A4,4,0,0,1,238.43,48.82Zm1.6-6.63-.51,0a5.59,5.59,0,0,0-.59.11,4.58,4.58,0,0,0-2.42,1.54,2,2,0,0,0-.33.5,2.2,2.2,0,0,0-.27.65,2.86,2.86,0,0,0-.06.35,2.58,2.58,0,0,0,0,.48,2.05,2.05,0,0,0,1.56,1.6,1.9,1.9,0,0,0,.49.11,3.55,3.55,0,0,0,1.08,0,4.38,4.38,0,0,0,.59-.12,4.5,4.5,0,0,0,2.6-1.85,3,3,0,0,0,.36-.82,2.76,2.76,0,0,0,.07-.63,1.63,1.63,0,0,0-.08-.45,2,2,0,0,0-1.47-1.34,3.16,3.16,0,0,0-.53-.13A3.73,3.73,0,0,0,240,42.19Z"/></g></g></g></g></g><g id="_群組_7" data-name="&lt;群組&gt;"><g id="_群組_8" data-name="&lt;群組&gt;"><g id="_群組_9" data-name="&lt;群組&gt;"><path id="_複合路徑_7" data-name="&lt;複合路徑&gt;" class="cls-1" d="M676.77,25.7l-4.42,20.08h-4.69l4.1,2.72-4.24,19.33h-4.16l4.1,2.71h.06L662.82,92H561.42l.05-.22L550.92,81.07h-.5l14.81-67.45h102l0,.19,9.49,11.79,0,.1Zm-16.85,5.89,3.23-14.69H567.87L554.51,77.79h95.87l3.52-16.06H572l1.78-8.09h81.33l3.06-14H576.82l1.77-8.1Z"/><path id="_路徑_41" data-name="&lt;路徑&gt;" class="cls-1" d="M661.81,18l-2.76,12.55H577.73l-2.25,10.24H656.8l-2.58,11.8H572.89l-2.25,10.25h81.93l-3.06,13.9h-3.26v-1.4c1.1,0,1.85-.86,2.26-2.58l.37-1.64c.37-1.59,0-2.38-1.11-2.39l-13.43,0a.32.32,0,0,1-.3-.16.66.66,0,0,1,0-.52,1.35,1.35,0,0,1,.29-.6.58.58,0,0,1,.4-.23l15.09,0,.59-2.49-16.22,0c-1,0-1.68.74-2,2.2l-1.69,0c.33-1.45,0-2.18-1-2.18l-16.6,0-2.48,10.69h2.15v1.39H555.84L568.74,18Z"/><path id="_路徑_42" data-name="&lt;路徑&gt;" class="cls-1" d="M646.12,71c.39,0,.52.33.38.94a4.47,4.47,0,0,1-.33.37,1.56,1.56,0,0,1-.47.35l-14.92,0-.59,2.6,16.06,0v1.4H612.53V75.32l1-4.29H628c1,0,1.68-.8,2-2.41l.42-1.8,1.69,0-.42,1.79c-.35,1.55,0,2.33.95,2.35Z"/><path id="_路徑_43" data-name="&lt;路徑&gt;" class="cls-1" d="M627.68,67.12A.9.9,0,0,1,628,68a1.26,1.26,0,0,1-.65.77l-13.29,0,.38-1.62Z"/></g></g></g><g id="_群組_10" data-name="&lt;群組&gt;"><g id="_群組_11" data-name="&lt;群組&gt;"><rect id="_路徑_44" data-name="&lt;路徑&gt;" class="cls-1" x="14.68" y="108.87" width="2.57" height="1.54" transform="matrix(0.29, -0.96, 0.96, 0.29, -93.6, 93.15)"/><path id="_複合路徑_8" data-name="&lt;複合路徑&gt;" class="cls-1" d="M17.93,105.82l-1.48-.45,1.7-5.63,1.48.44Zm2.55-8.45L19,96.92l1.71-5.63,1.47.45Z"/><rect id="_路徑_45" data-name="&lt;路徑&gt;" class="cls-1" x="21.38" y="86.69" width="2.57" height="1.54" transform="translate(-67.61 83.82) rotate(-73.16)"/></g><g id="_群組_12" data-name="&lt;群組&gt;"><rect id="_路徑_46" data-name="&lt;路徑&gt;" class="cls-1" x="9.29" y="113.81" width="2.58" height="1.93" transform="translate(-102.35 91.71) rotate(-73.19)"/><path id="_複合路徑_9" data-name="&lt;複合路徑&gt;" class="cls-1" d="M12.72,111l-1.85-.55,1.71-5.63,1.85.55Zm2.56-8.44L13.43,102l1.7-5.63,1.85.56Z"/><rect id="_路徑_47" data-name="&lt;路徑&gt;" class="cls-1" x="15.99" y="91.64" width="2.57" height="1.93" transform="translate(-76.36 82.37) rotate(-73.19)"/></g><g id="_群組_13" data-name="&lt;群組&gt;"><rect id="_路徑_48" data-name="&lt;路徑&gt;" class="cls-1" x="4.83" y="116.21" width="2.58" height="2.19" transform="translate(-107.93 89.2) rotate(-73.17)"/><path id="_複合路徑_10" data-name="&lt;複合路徑&gt;" class="cls-1" d="M8.39,113.58l-2.09-.64L8,107.31l2.1.64ZM11,105.13l-2.1-.63,1.71-5.64,2.09.64Z"/><rect id="_路徑_49" data-name="&lt;路徑&gt;" class="cls-1" x="11.54" y="94.04" width="2.57" height="2.19" transform="translate(-81.94 79.87) rotate(-73.17)"/></g><g id="_群組_14" data-name="&lt;群組&gt;"><rect id="_路徑_50" data-name="&lt;路徑&gt;" class="cls-1" x="0.32" y="118.53" width="2.57" height="2.57" transform="translate(-113.53 86.6) rotate(-73.14)"/><path id="_複合路徑_11" data-name="&lt;複合路徑&gt;" class="cls-1" d="M4.06,116.14l-2.46-.75,1.7-5.63,2.46.75Zm2.56-8.45L4.15,107l1.71-5.63,2.46.74Z"/><rect id="_路徑_51" data-name="&lt;路徑&gt;" class="cls-1" x="7.02" y="96.35" width="2.57" height="2.57" transform="translate(-87.54 77.28) rotate(-73.14)"/></g><g id="_群組_15" data-name="&lt;群組&gt;"><rect id="_路徑_52" data-name="&lt;路徑&gt;" class="cls-1" x="20.54" y="101.49" width="2.57" height="1.29" transform="translate(-82.26 93.51) rotate(-73.2)"/><path id="_複合路徑_12" data-name="&lt;複合路徑&gt;" class="cls-1" d="M23.67,98.27l-1.23-.37,1.7-5.63,1.23.37Zm2.56-8.44L25,89.46l1.71-5.64,1.23.38Z"/><rect id="_路徑_53" data-name="&lt;路徑&gt;" class="cls-1" x="27.25" y="79.32" width="2.57" height="1.29" transform="translate(-56.26 84.16) rotate(-73.19)"/></g><g id="_群組_16" data-name="&lt;群組&gt;"><g id="_群組_17" data-name="&lt;群組&gt;"><g id="_群組_18" data-name="&lt;群組&gt;"><path id="_路徑_54" data-name="&lt;路徑&gt;" class="cls-1" d="M53,47C40.7,47,34.76,56.73,33.34,61.88L26,86.3l1.24.37,7.34-24.44c1.33-4.83,6.9-14,18.44-14h52.25l1-1.29Z"/><path id="_路徑_55" data-name="&lt;路徑&gt;" class="cls-1" d="M52.05,43.24c-13.6,0-20.41,10.93-22.11,16.7L21.08,89.69l1.54.46L31.48,60.4C33.07,55,39.4,44.85,52.05,44.85h56l1.3-1.61Z"/><path id="_路徑_56" data-name="&lt;路徑&gt;" class="cls-1" d="M51.08,39.51c-14.89,0-22.56,12.1-24.54,18.5L16.16,93.09l1.85.54L28.39,58.57c1.83-5.92,8.93-17.13,22.69-17.13h59.74l1.57-1.93Z"/><path id="_路徑_57" data-name="&lt;路徑&gt;" class="cls-1" d="M50.11,35.78c-16.17,0-24.71,13.27-27,20.31L11.24,96.48l2.16.64L25.29,56.75C27.37,50.28,35.24,38,50.11,38h63.48l1.83-2.26Z"/><path id="_路徑_58" data-name="&lt;路徑&gt;" class="cls-1" d="M118.19,32.05h-69c-17.46,0-26.85,14.43-29.4,22.1L6.32,99.87l2.47.73L22.2,54.92c2.33-7,11-20.29,26.94-20.29h67.22L117.7,33S117.87,32.64,118.19,32.05Z"/></g></g><g id="_群組_19" data-name="&lt;群組&gt;"><g id="_群組_20" data-name="&lt;群組&gt;"><path id="_路徑_59" data-name="&lt;路徑&gt;" class="cls-1" d="M61.88,20.59c-11.13,0-17,7.94-19.12,13.25l1.56-.38C46.55,28.51,52,21.87,61.88,21.87h62.89c.32-.42.65-.85,1-1.28Z"/><path id="_路徑_60" data-name="&lt;路徑&gt;" class="cls-1" d="M60.91,16.86c-13.6,0-20.41,10.92-22.1,16.67l-.56,1.63c.63-.21,1.27-.42,1.91-.61l.18-.53c1.58-5.38,7.92-15.56,20.57-15.56h66.61c.47-.53.94-1.07,1.43-1.6Z"/><path id="_路徑_61" data-name="&lt;路徑&gt;" class="cls-1" d="M59.94,13.12c-14.89,0-22.56,12.1-24.53,18.48l-2.06,6.2c.17-.15.31-.3.42-.41A7.75,7.75,0,0,1,36,36.05l1.28-3.86c1.83-5.93,8.92-17.13,22.69-17.13h70.74c.66-.66,1.35-1.31,2-1.94Z"/><path id="_路徑_62" data-name="&lt;路徑&gt;" class="cls-1" d="M59,9.39c-16.17,0-24.71,13.27-27,20.28L27.62,43.24,31,40l3.12-9.65C36.23,23.89,44.09,11.65,59,11.65h75.49c1-.8,2-1.56,3.08-2.26Z"/><path id="_路徑_63" data-name="&lt;路徑&gt;" class="cls-1" d="M58,5.66c-17.46,0-26.85,14.43-29.39,22.08L22,48.72c1.27-1.26,2.6-2.55,3.91-3.8l5.19-16.39C33.39,21.51,42,8.24,58,8.24h81.44a27.34,27.34,0,0,1,6.12-2.58Z"/></g></g></g></g><path class="cls-1" d="M474,50.19a4,4,0,0,1,.29-.29c.1-.08.19-.18.29-.27l0,0-.49-.46c-2.13-2-4.18-4-6.14-5.93-.11-.09-.22-.2-.31-.29l-.37.36-3.12,3.08-3.93,3.75c-1.31,1.26-2.64,2.47-4,3.7s-2.42,2.22-3.65,3.28c.1.1.19.21.27.3l6.26,6.79,3.68-3.41,4-3.65.13-.12c1.23-1.26,2.46-2.48,3.73-3.7C471.88,52.26,472.94,51.21,474,50.19Z"/><path class="cls-1" d="M491.11,52.27l4.61-22.07-.33-.18-.46-.3c-10.52-7-20.75-12.51-36.67-19.92l-2.93,0H379.74L362.61,87.91h22.74l3.18-16.79.21-.2-.12-.12.35-.36h64l7.2,17.47h24.59l-7-17.5C484.1,69.88,488.58,63.79,491.11,52.27Zm-15.93,29c-1.29,1.26-2.64,2.47-4,3.7a1.8,1.8,0,0,1-.2.19H469.1c.39-.39.78-.79,1.18-1.17,1.15-1.08,2.27-2.21,3.43-3.27l.3-.29a.64.64,0,0,1,.15-.13l-2.73-2.61c-1.44-1.37-2.85-2.71-4.21-4.09l-.21.19-3.28,3.25-3.68,3.53-.58-1.4,3.33-3.11L466.23,73l-.12-.12.39-.39q1.9-2,3.85-3.83c1.22-1.16,2.42-2.34,3.65-3.47l.24-.23c-2.38-2.26-4.63-4.37-6.78-6.52l-.16-.17-3.5,3.44-3.93,3.75c-1.3,1.27-2.65,2.48-4,3.72l-.41.37-.56-1.36h0c1.21-1.16,2.4-2.33,3.63-3.47l.24-.23c-2.43-2.32-4.74-4.48-6.92-6.7h0l-3.48,3.46L444.49,65c-.95.91-1.93,1.81-2.9,2.7h-2c1.21-1.16,2.39-2.33,3.62-3.46l.24-.23c-2.43-2.31-4.74-4.48-6.94-6.69L433,60.81l-3.93,3.75c-1.11,1.08-2.26,2.13-3.41,3.18h-2l.47-.46c1-1,2.07-2,3.12-3l-6.68-6.93-2.79,2.75-3.92,3.75c-1.3,1.27-2.65,2.47-4,3.71l-.19.17h-1.93L409,66.59c1-1,2-2,3-2.88a2.55,2.55,0,0,1,.24-.23c-2.4-2.32-4.71-4.47-6.9-6.64l-.16-.18-3.5,3.45-3.93,3.75c-1.29,1.27-2.64,2.47-4,3.71l-.18.17h-1.93l1.18-1.15c1.22-1.16,2.42-2.35,3.63-3.47l.25-.23c-2.43-2.32-4.74-4.49-6.93-6.69l-3.5,3.43-3.93,3.76c-1.29,1.27-2.64,2.48-4,3.71q-1.7,1.56-3.44,3.09c2,2.26,4,4.57,5.83,6.76l.62.67,3.79-3.51-.43,2.26-2.48,2.37c-1.29,1.27-2.65,2.47-4,3.72-1,.93-2,1.84-3.07,2.75h-1.64c1.26-1.26,2.5-2.51,3.78-3.74s2.27-2.2,3.43-3.28c.09-.1.19-.19.3-.29a1,1,0,0,1,.15-.13L378.43,75c-1.41-1.34-2.77-2.63-4.08-4l-.2.2-3.3,3.26-3.22,3.07.54-2.43,1.75-1.63,3.43-3.09-.11-.12.38-.38c1.27-1.3,2.55-2.58,3.86-3.83s2.4-2.34,3.63-3.48a2.46,2.46,0,0,1,.25-.22c-2.43-2.33-4.74-4.49-6.95-6.69l-2.52,2.5.47-2.18L374,54.54l.24-.21c1.19-1.22,2.39-2.43,3.62-3.61s2.16-2.09,3.25-3.11l.29-.28h0a2.56,2.56,0,0,1,.3-.28s0,0,0,0l-.26-.25c-2-2-4-3.8-5.86-5.66l.26-1.19c2.09,2.36,4.1,4.74,6,7l3.91-3.64,3.24-2.92-.09-.11.38-.39c1.27-1.3,2.55-2.58,3.86-3.82l.08-.08-.63,2.39c-.59.53-1.18,1.07-1.77,1.59l1,1.2-.28,1.06-1.32-1.29-.09-.09-.38.36-3.11,3.08L382.81,48c-1.31,1.25-2.66,2.47-4,3.7s-2.4,2.2-3.65,3.28a3.58,3.58,0,0,1,.27.29l6.26,6.8,3.67-3.42,4-3.65.25-.22q1.79-1.83,3.62-3.6c1.1-1,2.16-2.09,3.26-3.1.09-.11.19-.19.28-.29s.19-.19.3-.28a.05.05,0,0,0,0,0L397,47.3h.26l.07.08.09-.07,2,0-1.19,1.14c-1.3,1.25-2.65,2.47-4,3.7s-2.42,2.2-3.65,3.28l6.52,7.09,3.68-3.43,4-3.63c1.29-1.29,2.56-2.57,3.87-3.82s2.55-2.49,3.87-3.7l-.42-.41,2.84,0-1.39,1.33c-1.3,1.27-2.65,2.48-4,3.71s-2.42,2.19-3.65,3.27h0l6.65,7.21.33-.31,4-3.71,4-3.63.42-.38c.92-.92,1.84-1.84,2.77-2.73,1.24-1.19,2.47-2.4,3.74-3.58.07,0,.12-.12.19-.17l0,0-.84-.8h.83l.39.43.44-.41,2,0L429,49.67c-1.3,1.25-2.65,2.47-4,3.7-1,.89-1.93,1.77-2.91,2.63l-.39.35-.35.3.82.89,5.69,6.19.23.24.38-.35.05,0,.06-.06L436,56.81l.83-.74,6.92-6.34.14-.12-.49-.47L442.18,48h1l.63.69.09-.08.64-.6,2,0-1.68,1.61c-1.3,1.26-2.65,2.47-4,3.71s-2.42,2.19-3.65,3.27a3.65,3.65,0,0,1,.27.3l6.25,6.79,3.68-3.41,4-3.65.26-.23c1.19-1.22,2.39-2.42,3.62-3.59q1.61-1.56,3.24-3.11c.1-.09.19-.19.3-.28s.2-.19.3-.29l0,0c-.15-.14-.3-.29-.45-.42l-1.71-1.63.42-.24c.62.73,1.25,1.47,1.84,2.18l3.92-3.65,3.24-2.93-.09-.09.38-.39q1.89-2,3.86-3.84l.6-.58c.36.32.71.62,1.06.9l-.73.68Q470,40.61,468.36,42c2.26,2.51,4.39,5.06,6.42,7.44l3.92-3.63,3.24-2.92-.11-.11.17-.17c.32,0,.64,0,.95,0s.63,0,.93,0c1.81,2,3.55,4.06,5.22,6l-.09.41c-2-2-4-3.79-5.86-5.66l0,0-.38.36-3.12,3.07-3.93,3.77c-1.29,1.25-2.64,2.47-4,3.7-1.18,1.1-2.41,2.18-3.64,3.26v0l6.52,7.09,3.67-3.43,4-3.64h0l.12-.12c1.23-1.24,2.47-2.48,3.72-3.7l2.34-2.23,0,.17c-.18.8-.37,1.56-.56,2.3l-.81.75c-1.19,1.11-2.41,2.19-3.64,3.27l.26.29,1.95,2.12c-.13.29-.27.58-.41.85-.81-.78-1.63-1.57-2.42-2.35a1.33,1.33,0,0,1-.16-.17l-3.48,3.44L475.27,66c-1.31,1.25-2.65,2.47-4,3.71-1.12,1-2.27,2.07-3.43,3.08,2,2.27,4,4.58,5.85,6.78l.61.66,3.24-3,.55,1.37ZM377.8,35.56c1.22-1.17,2.42-2.34,3.64-3.48l.24-.23-3.31-3.16.21-.94L382,31.52l3.69-3.42,4-3.65.13-.12c.73-.74,1.46-1.48,2.2-2.21h0c.5-.5,1-1,1.51-1.49,1.15-1.09,2.27-2.2,3.43-3.28.09-.09.19-.19.3-.28a1.85,1.85,0,0,1,.14-.14l-2.79-2.67-1.79-1.73h1c1,1.16,2,2.31,2.93,3.43l.75.82,3.89-3.6.71-.65h1.86l-1.65,1.63-3.93,3.76c-1.3,1.25-2.65,2.47-4,3.7L393,23c-.69.64-1.39,1.26-2.1,1.87L397,31.54h-.77c-2.06-2-4.06-3.86-5.95-5.74l-.17-.16-3.49,3.43-3.93,3.76c-1.3,1.27-2.65,2.47-4,3.71-.86.79-1.73,1.57-2.61,2.35l.47-2.14Zm3-17.82c.3-.28.59-.57.9-.85a1.9,1.9,0,0,1,.29-.28h0a1,1,0,0,1,.15-.14l-.87-.84.08-.35.33.39.61.66,3.88-3.61.19-.18h1.91l-1.17,1.16-1.73,1.66-2.2,2.1c-.95.91-1.92,1.81-2.9,2.71Zm32.92-1.08.17.19,4.74-4.32H420l-2.12,2.09-3.92,3.76c-1.3,1.27-2.65,2.47-4,3.71s-2.42,2.19-3.65,3.27h0l.26.29L412,31.54h-.84c-1.94-1.86-3.83-3.65-5.61-5.44L402,29.55l-1.28,1.22-.8.77h-2l1.86-1.74,1.32-1.24,4-3.63h0l.12-.12c1.23-1.25,2.47-2.49,3.74-3.7s2.56-2.49,3.88-3.7c-1.76-1.69-3.44-3.28-5.08-4.88h2.08Zm15.31.85,3.38-3.14,2-1.84h1.76l-2.87,2.82-3.93,3.76c-1.29,1.25-2.64,2.47-4,3.7-.9.85-1.83,1.69-2.78,2.51a4.4,4.4,0,0,1-.39.35l-.4.35-.07.07,5,5.45h-1.22l-4.69-4.86-2.67,2.64-2.33,2.22h-1.55l6-5.45,0,0,.38-.39c.41-.42.81-.83,1.22-1.23.87-.88,1.75-1.76,2.64-2.61,1.31-1.25,2.6-2.52,3.93-3.75l-.78-.81c-1.69-1.63-3.31-3.18-4.89-4.73h1.69Zm15.37.45,3.87-3.62,2-1.81H452l-2.82,2.8-3.93,3.75c-1.31,1.26-2.65,2.47-4,3.7s-2.42,2.21-3.64,3.28l.27.3,4.76,5.18h-.91c-1.69-1.61-3.34-3.18-4.89-4.75h0l-3.49,3.45L432,31.54h-1.49l5.8-5.29.81-.74,7.08-6.46-.5-.47c-2.2-2.1-4.28-4.07-6.28-6h1.95Zm48.29,13.65-.05.24a10.51,10.51,0,0,1-6.74,7.69c-4.48,1.45-9.66-.59-14.58-5.75-4.12-4.33-5.24-7.59-6.53-11.37a51.6,51.6,0,0,0-3.17-7.67ZM393.82,44.54l2.7-10.3h61.75a1.48,1.48,0,0,1,1.33.64,3.87,3.87,0,0,1,.54,2.19c0,3.46-2.64,8.29-6.93,8.29C438.1,45.36,402.1,44.69,393.82,44.54Zm68-11.16,0-.05a4.08,4.08,0,0,0-.95-.95l2.35-2.19,1.3-1.17c.19.38.42.77.64,1.16l-1,1Zm-2.7-15.61.61.66.44-.41c.21.47.41.93.59,1.38l-.15.15c-1.3,1.26-2.65,2.47-4,3.7s-2.42,2.2-3.65,3.28l4.6,5h-1c-1.46-1.39-2.89-2.76-4.25-4.13a.93.93,0,0,1-.15-.13l-3.5,3.43-.87.83h-2l1.94-1.81,4-3.64L452,26c1.23-1.26,2.46-2.49,3.72-3.7s2.26-2.2,3.42-3.27c.1-.11.2-.2.31-.3l.15-.13-2.85-2.73c-1.17-1.11-2.3-2.2-3.42-3.31h1.32C456.2,14.31,457.71,16.08,459.14,17.77Z"/></g></svg>